<?xml version="1.0" encoding="utf-8"?>
<!-- Generator: Adobe Illustrator 28.4.0, SVG Export Plug-In . SVG Version: 6.00 Build 0)  -->
<svg version="1.1" id="Layer_1" xmlns="http://www.w3.org/2000/svg" xmlns:xlink="http://www.w3.org/1999/xlink" x="0px" y="0px"
	 viewBox="0 0 512 512" style="enable-background:new 0 0 512 512;" xml:space="preserve">
<style type="text/css">
	.st0{display:none;}
	.st1{fill:#FFFFFF;}
</style>
<path class="st0" d="M30,0h452c16.6,0,30,13.4,30,30v452c0,16.6-13.4,30-30,30H30c-16.6,0-30-13.4-30-30V30C0,13.4,13.4,0,30,0z"/>
<g>
	<path class="st1" d="M336,368h-16v-24c0-22.1-17.9-40-40-40h-48c-22.1,0-40,17.9-40,40v24h-16v-24c0-30.9,25.1-56,56-56h48
		c30.9,0,56,25.1,56,56V368z M168,176c-4.4,0-8,3.6-8,8v72h16v-72C176,179.6,172.4,176,168,176z"/>
	<path class="st1" d="M160,144v16h40v56c0,30.9,25.1,56,56,56s56-25.1,56-56v-56h40v-16H160z M216,160h80v24h-80V160z M256,256
		c-22.1,0-40-17.9-40-40v-16h80v16C296,238.1,278.1,256,256,256z"/>
</g>
</svg>
