<?xml version="1.0" encoding="utf-8"?>
<!-- Generator: Adobe Illustrator 28.4.0, SVG Export Plug-In . SVG Version: 6.00 Build 0)  -->
<svg version="1.1" id="Layer_1" xmlns="http://www.w3.org/2000/svg" xmlns:xlink="http://www.w3.org/1999/xlink" x="0px" y="0px"
	 viewBox="0 0 512 512" style="enable-background:new 0 0 512 512;" xml:space="preserve">
<style type="text/css">
	.st0{fill:#FFFFFF;stroke:#000000;stroke-width:5.3333;stroke-linecap:round;stroke-linejoin:round;stroke-miterlimit:21.3333;}
</style>
<path d="M30,0h452c16.6,0,30,13.4,30,30v452c0,16.6-13.4,30-30,30H30c-16.6,0-30-13.4-30-30V30C0,13.4,13.4,0,30,0z"/>
<g>
	<g>
		<path class="st0" d="M268.1,315.2l-45.4-38.7c-21.9,18.4-43.1,37.7-65.4,55.5l0,11.9c0,5.9,4.8,10.7,10.7,10.7h176
			c5.9,0,10.7-4.8,10.7-10.7V242.8C354.7,242.8,295.9,291.8,268.1,315.2L268.1,315.2z"/>
		<path class="st0" d="M354.7,195.8l-86.5,72.3l-45.4-38.7L157.3,285v21.8l65.4-55.5l45.4,38.7l86.5-72.3L354.7,195.8L354.7,195.8z"
			/>
	</g>
</g>
</svg>
