<?xml version="1.0" encoding="utf-8"?>
<!-- Generator: Adobe Illustrator 28.4.0, SVG Export Plug-In . SVG Version: 6.00 Build 0)  -->
<svg version="1.1" id="Layer_1" xmlns="http://www.w3.org/2000/svg" xmlns:xlink="http://www.w3.org/1999/xlink" x="0px" y="0px"
	 viewBox="0 0 512 512" style="enable-background:new 0 0 512 512;" xml:space="preserve">
<style type="text/css">
	.st0{fill:#FFFFFF;}
</style>
<path d="M30,0h452c16.6,0,30,13.4,30,30v452c0,16.6-13.4,30-30,30H30c-16.6,0-30-13.4-30-30V30C0,13.4,13.4,0,30,0z"/>
<g>
	<path class="st0" d="M256.5,139.2c-8.4,0-16.2,3.8-22.9,10.1c-6.7,6.3-12.4,15-17.2,25.6c-1,2.2-2,4.5-2.9,6.9
		c-2.5-0.4-4.9-0.7-7.4-1c-2.9-0.3-5.7-0.5-8.4-0.5c-8.2-0.2-15.7,0.6-22.3,2.6c-8.8,2.7-16,7.5-20.2,14.8c-4.2,7.3-4.8,16-2.7,24.9
		c2.1,8.9,6.8,18.2,13.5,27.7c1.4,2,2.9,4,4.5,5.9c-1.6,1.9-3.1,3.9-4.5,5.9c-6.8,9.4-11.5,18.7-13.5,27.7s-1.5,17.6,2.7,24.9
		c4.2,7.3,11.4,12.2,20.2,14.8c8.8,2.7,19.2,3.3,30.7,2.1c2.4-0.2,4.9-0.6,7.4-1c0.9,2.3,1.9,4.6,2.9,6.9
		c4.8,10.6,10.5,19.3,17.2,25.6c6.7,6.3,14.5,10.1,22.9,10.1c8.4,0,16.2-3.8,22.9-10.1c6.7-6.3,12.4-15,17.2-25.6
		c1-2.3,2-4.6,2.9-6.9c2.5,0.4,5,0.7,7.4,1c11.5,1.2,22,0.6,30.7-2.1c8.8-2.7,16-7.5,20.2-14.8c4.2-7.3,4.8-16,2.7-24.9
		c-2.1-8.9-6.8-18.2-13.5-27.7c-1.5-2-3-4-4.5-5.9c1.6-1.9,3.1-3.9,4.5-5.9c6.8-9.4,11.5-18.7,13.5-27.7c2.1-8.9,1.5-17.6-2.7-24.9
		c-4.2-7.3-11.4-12.2-20.2-14.8c-6.6-2-14.1-2.8-22.3-2.6c-2.7,0.1-5.6,0.2-8.4,0.5c-2.4,0.2-4.9,0.6-7.4,1
		c-0.9-2.3-1.8-4.6-2.9-6.9c-4.8-10.6-10.5-19.3-17.2-25.6C272.7,143,264.9,139.2,256.5,139.2L256.5,139.2z M256.5,148.5
		c5.6,0,11.1,2.5,16.5,7.6c5.4,5.1,10.6,12.8,15.1,22.6c0.7,1.6,1.4,3.2,2,4.8c-10.7,2.4-22,6-33.6,10.9
		c-11.6-4.9-22.9-8.5-33.6-10.9c0.7-1.7,1.3-3.3,2-4.8c4.4-9.8,9.6-17.5,15.1-22.6C245.4,151,250.9,148.5,256.5,148.5L256.5,148.5z
		 M194.7,189.6c0.9,0,1.8,0,2.7,0c2.5,0.1,5.1,0.2,7.7,0.5c1.7,0.2,3.4,0.4,5.2,0.6c-3.3,10.5-5.8,22.1-7.4,34.6
		c-10,7.6-18.9,15.6-26.3,23.7c-1.1-1.4-2.1-2.8-3.2-4.2c-6.2-8.7-10.3-17.1-12-24.3c-1.7-7.3-1.1-13.3,1.7-18.1
		c2.8-4.9,7.7-8.4,14.8-10.5C182.8,190.4,188.4,189.6,194.7,189.6L194.7,189.6z M318.3,189.6c6.3,0.1,11.9,0.8,16.6,2.2
		c7.1,2.2,12,5.7,14.8,10.5c2.8,4.9,3.4,10.8,1.7,18.1c-1.7,7.3-5.8,15.6-12,24.3c-1,1.4-2.1,2.8-3.2,4.2
		c-7.4-8.1-16.2-16.1-26.3-23.7c-1.6-12.5-4.1-24.1-7.4-34.6c1.8-0.3,3.5-0.5,5.2-0.6c2.6-0.3,5.1-0.4,7.7-0.5
		C316.4,189.6,317.4,189.6,318.3,189.6L318.3,189.6z M293.3,192.4c2.5,7.7,4.5,16.2,6.1,25.4c-5-3.4-10-6.5-15.2-9.5
		c-5.2-3-10.5-5.8-15.8-8.4C277,196.6,285.4,194.1,293.3,192.4L293.3,192.4z M219.7,192.4c7.9,1.7,16.3,4.2,25,7.4
		c-5.4,2.6-10.7,5.4-15.8,8.4c-5.2,3-10.3,6.2-15.2,9.5C215.1,208.6,217.2,200.1,219.7,192.4L219.7,192.4z M256.5,204.6
		c7.6,3.4,15.3,7.3,23,11.7c7.7,4.4,14.9,9.2,21.6,14.1c0.9,8.3,1.4,16.9,1.4,25.8c0,8.9-0.5,17.5-1.4,25.8
		c-6.7,4.9-13.9,9.6-21.6,14.1c-7.7,4.4-15.4,8.3-23,11.7c-7.6-3.4-15.3-7.3-23-11.7c-7.7-4.4-14.9-9.2-21.6-14.1
		c-0.9-8.3-1.4-16.9-1.4-25.8c0-8.9,0.5-17.5,1.4-25.8c6.7-4.9,13.9-9.6,21.6-14.1C241.2,211.9,248.9,208,256.5,204.6L256.5,204.6z
		 M257.1,218.7l-26.8,16.5l26.8,16.5l26.8-16.5L257.1,218.7L257.1,218.7z M201.7,238.2c-0.4,6-0.6,12-0.6,17.9
		c0,6.1,0.2,12.1,0.6,17.9c-7.1-5.9-13.5-11.9-18.9-17.9C188.3,250.2,194.6,244.1,201.7,238.2L201.7,238.2z M311.2,238.3
		c7.1,5.9,13.5,11.9,18.9,17.9c-5.4,6-11.8,12-18.9,17.9c0.4-6,0.6-11.9,0.6-17.9C311.9,250.1,311.7,244.1,311.2,238.3L311.2,238.3z
		 M224.3,242.4V275l28.1,17.3v-32.6L224.3,242.4z M289.9,242.5l-28.1,17.3v32.6l28.1-17.3L289.9,242.5L289.9,242.5z M176.7,263.4
		c7.4,8.1,16.3,16.1,26.3,23.7c1.6,12.5,4.1,24.1,7.4,34.6c-1.8,0.3-3.5,0.5-5.2,0.6c-10.7,1.1-19.9,0.4-27.1-1.7
		c-7.1-2.2-12-5.7-14.8-10.5c-2.8-4.9-3.4-10.8-1.7-18.1c1.7-7.3,5.8-15.6,12-24.3C174.6,266.2,175.6,264.8,176.7,263.4L176.7,263.4
		z M336.2,263.4c1.1,1.4,2.2,2.8,3.2,4.2c6.2,8.7,10.3,17.1,12,24.3c1.7,7.3,1.1,13.3-1.7,18.1c-2.8,4.9-7.7,8.4-14.8,10.5
		c-7.1,2.2-16.4,2.8-27.1,1.7c-1.7-0.2-3.5-0.4-5.2-0.6c3.3-10.5,5.8-22.1,7.4-34.6C320,279.5,328.8,271.5,336.2,263.4L336.2,263.4z
		 M299.4,294.6c-1.5,9.1-3.6,17.6-6.1,25.3c-7.9-1.7-16.3-4.2-25-7.4c5.4-2.6,10.7-5.4,15.9-8.4C289.4,301.2,294.4,298,299.4,294.6
		L299.4,294.6z M213.6,294.6c5,3.3,10,6.5,15.2,9.5c5.2,3,10.5,5.8,15.9,8.4c-8.7,3.2-17.1,5.7-25,7.4
		C217.2,312.3,215.1,303.7,213.6,294.6L213.6,294.6z M256.8,295.1l0.3,0.2l0.3-0.2H256.8L256.8,295.1z M256.5,317.9
		c11.6,4.9,22.9,8.5,33.6,10.9c-0.6,1.6-1.3,3.2-2,4.8c-4.4,9.8-9.6,17.5-15.1,22.6c-5.4,5.1-10.9,7.6-16.5,7.6
		c-5.6,0-11.1-2.5-16.5-7.6c-5.4-5.1-10.6-12.8-15.1-22.6c-0.7-1.6-1.4-3.2-2-4.8C233.6,326.5,244.9,322.8,256.5,317.9L256.5,317.9z
		"/>
</g>
</svg>
