<?xml version="1.0" encoding="utf-8"?>
<!-- Generator: Adobe Illustrator 28.4.0, SVG Export Plug-In . SVG Version: 6.00 Build 0)  -->
<svg version="1.1" id="Layer_1" xmlns="http://www.w3.org/2000/svg" xmlns:xlink="http://www.w3.org/1999/xlink" x="0px" y="0px"
	 viewBox="0 0 512 512" style="enable-background:new 0 0 512 512;" xml:space="preserve">
<style type="text/css">
	.st0{fill:#FFFFFF;stroke:#000000;stroke-width:5.3333;stroke-linecap:round;stroke-linejoin:round;stroke-miterlimit:21.3333;}
</style>
<path d="M30,0h452c16.6,0,30,13.4,30,30v452c0,16.6-13.4,30-30,30H30c-16.6,0-30-13.4-30-30V30C0,13.4,13.4,0,30,0z"/>
<g>
	<path class="st0" d="M182.5,329.5c-40.6-40.6-40.6-106.5,0-147.1C202,163,228.4,152,256,152 M329.5,182.5
		c40.6,40.6,40.6,106.5,0,147.1C310,349,283.6,360,256,360"/>
	<circle class="st0" cx="313.6" cy="175.9" r="16.9"/>
	<circle class="st0" cx="198.4" cy="336.1" r="16.9"/>
	<path class="st0" d="M234,236.3l16.9,33.7l56.2-5.6l-33.7-67.5L234,236.3z"/>
	<path class="st0" d="M234,236.3l-22.5,11.2c-6.8,3.4-6.2,15.7-2.8,22.5c3.4,6.8,12.9,14.6,19.7,11.2l22.5-11.2 M245.9,272.9
		l14.1,28.1l-11.2,5.6l-14.1-28.1"/>
</g>
</svg>
