<?xml version="1.0" encoding="utf-8"?>
<!-- Generator: Adobe Illustrator 28.4.0, SVG Export Plug-In . SVG Version: 6.00 Build 0)  -->
<svg version="1.1" id="Layer_1" xmlns="http://www.w3.org/2000/svg" xmlns:xlink="http://www.w3.org/1999/xlink" x="0px" y="0px"
	 viewBox="0 0 512 512" style="enable-background:new 0 0 512 512;" xml:space="preserve">
<style type="text/css">
	.st0{fill:#FFFFFF;}
</style>
<path d="M30,0h452c16.6,0,30,13.4,30,30v452c0,16.6-13.4,30-30,30H30c-16.6,0-30-13.4-30-30V30C0,13.4,13.4,0,30,0z"/>
<g>
	<path class="st0" d="M320.4,289c-6.8,5.4-14.6,9.5-23,12c0.8,5.3,1.3,10.7,1.3,16.3c45.6-11.8,73.1-58.4,61.3-104
		c-7.9-30.5-31.9-54.2-62.5-61.6c-45.3-10.9-91,16.5-102.7,61.6c5.5,0,11,0.4,16.2,1.3c2.5-8.3,6.6-16.1,12-23L320.4,289L320.4,289z
		 M331.7,277.7l-43-43.1l8.1-8.1c7.6,5.3,16.6,8.1,25.9,8.1c8.4,0,16.6-2.3,23.7-6.7C348.1,245.8,342.9,263.7,331.7,277.7
		L331.7,277.7z M301.1,169.5c7,2.6,13.5,6.2,19.3,10.8l-23.3,23.3c-2.4-4.4-3.7-9.3-3.7-14.3C293.3,181.7,296.3,174.7,301.1,169.5
		L301.1,169.5z M285.4,215.2l-8.1,8.1l-43-43c14-11.2,31.9-16.4,49.7-14.7c-4.4,7.1-6.7,15.3-6.7,23.7
		C277.3,199,280.3,207.9,285.4,215.2L285.4,215.2z M342.5,210.9c-5.4,5-12.5,7.7-19.8,7.7c-5.2,0-10.1-1.4-14.3-3.7l23.3-23.3
		C336.3,197.4,339.9,204,342.5,210.9L342.5,210.9z M173.3,240c-4.4,0-8,3.6-8,8v21.3c0,42.7,34.6,77.3,77.3,77.3H264
		c4.4,0,8-3.6,8-8v-21.3c0-42.7-34.6-77.3-77.3-77.3H173.3z M149.3,248c0-13.3,10.7-24,24-24h21.3c51.5,0,93.3,41.8,93.3,93.3v21.3
		c0,13.3-10.7,24-24,24h-21.3c-51.5,0-93.3-41.8-93.3-93.3V248z M211,274.3c-3.2-3-8.3-2.8-11.3,0.4c-2.9,3.1-2.9,7.8,0,10.9
		l26.7,26.7c3,3.2,8.1,3.4,11.3,0.4c3.2-3,3.4-8.1,0.4-11.3c-0.1-0.1-0.3-0.3-0.4-0.4L211,274.3L211,274.3z"/>
</g>
</svg>
