<svg width="512" height="512" viewBox="0 0 512 512" style="color:#ffffff" xmlns="http://www.w3.org/2000/svg" class="h-full w-full"><rect width="512" height="512" x="0" y="0" rx="30" fill="transparent" stroke="transparent" stroke-width="0" stroke-opacity="100%" paint-order="stroke"></rect><svg width="256px" height="256px" viewBox="0 0 24 24" fill="#ffffff" x="128" y="128" role="img" style="display:inline-block;vertical-align:middle" xmlns="http://www.w3.org/2000/svg"><g fill="#ffffff"><path fill="none" stroke="currentColor" stroke-linecap="round" stroke-linejoin="round" stroke-width="2" d="M16.5 19a2.5 2.5 0 1 0 0-5a2.5 2.5 0 0 0 0 5ZM10 5l2-2m-4.5 7a2.5 2.5 0 1 0 0-5a2.5 2.5 0 0 0 0 5Zm.5 6l8-8M5.5 21a2.5 2.5 0 1 0 0-5a2.5 2.5 0 0 0 0 5Zm13-13a2.5 2.5 0 1 0 0-5a2.5 2.5 0 0 0 0 5ZM12 21l2-2"/></g></svg></svg>