<?xml version="1.0" encoding="utf-8"?>
<!-- Generator: Adobe Illustrator 28.4.0, SVG Export Plug-In . SVG Version: 6.00 Build 0)  -->
<svg version="1.1" id="Layer_1" xmlns="http://www.w3.org/2000/svg" xmlns:xlink="http://www.w3.org/1999/xlink" x="0px" y="0px"
	 viewBox="0 0 40 40" style="enable-background:new 0 0 40 40;" xml:space="preserve">
<style type="text/css">
	.st0{fill:#004AAD;}
	.st1{fill-rule:evenodd;clip-rule:evenodd;fill:#004AAD;}
</style>
<path class="st0" d="M19.7,37.2c-2.4,0-5.2-0.5-6.9-1.5c-1.7-1-3.5-2.6-4.4-4.5c-0.9-2-1.3-4.7-1.3-7.5V12l6.5-0.1v11.8
	c0,2.6,0.6,4.6,1.8,6c1.2,1.4,2.2,2,4.4,2c2.2,0,3.1-0.5,4.3-1.9c1.2-1.4,1.8-3.4,1.8-6V12h6.8v11.6c0,2.8-0.4,5.5-1.3,7.5
	c-0.9,2-3,3.5-4.7,4.5C24.8,36.7,22.1,37.2,19.7,37.2L19.7,37.2z"/>
<circle class="st1" cx="25.7" cy="6" r="3.2"/>
<circle class="st1" cx="13.6" cy="6" r="3.2"/>
</svg>
