<?xml version="1.0" encoding="utf-8"?>
<!-- Generator: Adobe Illustrator 28.4.0, SVG Export Plug-In . SVG Version: 6.00 Build 0)  -->
<svg version="1.1" id="uboost_mark" xmlns:xodm="http://www.corel.com/coreldraw/odm/2003"
	 xmlns="http://www.w3.org/2000/svg" xmlns:xlink="http://www.w3.org/1999/xlink" x="0px" y="0px" viewBox="0 0 900 300"
	 style="enable-background:new 0 0 900 300;" xml:space="preserve">
<style type="text/css">
	.st0{fill:#FF914D;}
	.st1{fill:#004AAD;}
	.st2{fill-rule:evenodd;clip-rule:evenodd;fill:#004AAD;}
</style>
<path class="st0" d="M308.1,227.3c-3.3-4.6-6.4-8-7.4-23.7V102.7H340v47c5.5-9.5,14.2-14.2,26.1-14.2c8.4,0,15.5,2.2,21.4,6.6
	s10.2,10.7,13.1,18.9c2.9,8.2,4.3,16.8,4.3,25.8c0,16.4-3.7,29.6-11,39.7c-7.3,10-17.8,13.7-32.1,15.8c-11.6,1.7-22.2,0.7-30.9-1.5
	C321.1,238.1,316.7,237,308.1,227.3L308.1,227.3z M340,201.4c0,10,3.9,15.3,11.6,15c13.1-0.5,12.8-18.4,13-27.9
	c0.3-12.3-1.3-20.1-3.8-23.3c-2.5-3.2-5.7-4.7-9.4-4.7c-2.9,0-5.6,1.1-7.9,3.4c-2.3,2.3-3.5,5.6-3.5,9.9L340,201.4L340,201.4z
	 M470.6,241.4c-16.9,0-30.2-5.3-40.2-15.7c-9.9-10.5-14.9-22.9-14.9-37c0-15.2,5.2-27.9,15.6-38c10.3-10.1,23.8-15.2,40.5-15.2
	c16.7,0,30.2,5,40.4,15c10.2,10,15.3,22.5,15.3,37.6c0,15.2-5.2,27.9-15.5,38.1C501.4,236.3,487.7,241.4,470.6,241.4L470.6,241.4z
	 M471.2,217.2c6.1,0,9.9-3.2,11.3-9.7c1.4-6.4,2-13.1,2-20.1c0-9.6-1-16.4-2.9-20.6c-2-4.2-5.4-6.3-10.4-6.3c-4.6,0-7.9,2.2-10,6.5
	c-2.1,4.3-3.2,11.5-3.2,21.4c0,11.7,1.1,19.4,3.3,23.1C463.6,215.4,466.9,217.2,471.2,217.2L471.2,217.2z M592.4,241.4
	c-16.9,0-30.3-5.3-40.2-15.7c-9.9-10.5-14.9-22.9-14.9-37c0-15.2,5.2-27.9,15.6-38c10.3-10.1,23.8-15.2,40.5-15.2
	c16.7,0,30.2,5,40.4,15c10.2,10,15.3,22.5,15.3,37.6c0,15.2-5.2,27.9-15.5,38.1C623.1,236.3,609.5,241.4,592.4,241.4L592.4,241.4z
	 M593,217.2c6.2,0,9.9-3.2,11.3-9.7c1.4-6.4,2-13.1,2-20.1c0-9.6-1-16.4-2.9-20.6c-2-4.2-5.4-6.3-10.3-6.3c-4.6,0-7.9,2.2-10,6.5
	c-2.1,4.3-3.2,11.5-3.2,21.4c0,11.7,1.1,19.4,3.3,23.1C585.3,215.4,588.6,217.2,593,217.2L593,217.2z M655.3,210.5l31.6-4.3
	c1.8,7.4,9,11.1,21.5,11.1c10.4,0,15.6-2,15.6-6c0-1.7-1-3.1-3-4.1c-2-1-6.8-1.9-14.3-2.9c-20.8-2.9-33.7-7.3-38.9-13.4
	c-5.2-6.1-7.8-12.9-7.8-20.4c0-10.4,4.3-18.9,13-25.3c8.7-6.4,20.1-9.7,34.3-9.7c24.8,0,40.5,8.9,47.4,26.7l-30.1,5.7
	c-2.8-6-8.8-9-17.9-9c-4.3,0-7.5,0.6-9.7,1.7c-2.1,1.2-3.2,2.3-3.2,3.5c0,3.3,3.2,5.4,9.6,6.1c16.7,1.9,28,3.8,34,5.7
	c5.9,1.9,11,5.5,15.2,10.6c4.2,5.2,6.3,11.4,6.3,18.6c0,11.1-4.6,20-14,26.5c-9.3,6.5-22.2,9.8-38.5,9.8
	C678.9,241.4,661.8,231.1,655.3,210.5L655.3,210.5z M836.8,137.5v25.8h-20.3v37.5c0,5.1,1,8.2,2.9,9.1c1.9,1,3.9,1.5,6,1.5
	c3.2,0,7-0.6,11.4-1.6v28.5c-7.9,1.5-15.6,2.2-23.2,2.2c-12.3,0-21.3-2.6-27.1-7.9c-5.7-5.3-8.6-13.7-8.6-25.2l0.1-11.9v-32.2h-15.2
	v-25.8H778l0.6-33.2l37.9-0.6v33.8L836.8,137.5L836.8,137.5z"/>
<path class="st1" d="M155.6,259.4c-15.2,0-33-2.9-43.8-9.4c-10.8-6.5-22.1-16.3-27.8-28.8c-5.7-12.4-8.5-30.1-8.5-47.6V99.8l41-0.4
	v74.8c0,16.3,3.8,28.9,11.4,37.8c7.5,8.9,13.9,12.4,27.7,12.4c13.9,0,19.9-3,27.4-11.9c7.6-8.9,11.4-21.5,11.4-37.8V99.8h42.9v73.8
	c0,17.5-2.9,35.1-8.5,47.6c-5.6,12.4-19.1,22.3-29.9,28.8C188.1,256.5,170.9,259.4,155.6,259.4L155.6,259.4z"/>
<circle class="st2" cx="194" cy="62" r="20.4"/>
<circle class="st2" cx="117" cy="62" r="20.4"/>
</svg>
