<?xml version="1.0" encoding="utf-8"?>
<!-- Generator: Adobe Illustrator 28.4.0, SVG Export Plug-In . SVG Version: 6.00 Build 0)  -->
<svg version="1.1" id="Layer_1" xmlns="http://www.w3.org/2000/svg" xmlns:xlink="http://www.w3.org/1999/xlink" x="0px" y="0px"
	 viewBox="0 0 800 800" style="enable-background:new 0 0 800 800;" xml:space="preserve">
<style type="text/css">
	.st0{opacity:0.8;fill-rule:evenodd;clip-rule:evenodd;fill:#FFFFFF;enable-background:new    ;}
	.st1{opacity:0.5;}
	.st2{fill:#C7D5FF;}
	.st3{fill:#FFFFFF;}
</style>
<path class="st0" d="M400,41.7c13.8,0,25,11.2,25,25v66.7c0,13.8-11.2,25-25,25c-13.8,0-25-11.2-25-25V66.7
	C375,52.9,386.2,41.7,400,41.7z M41.7,400c0-13.8,11.2-25,25-25h66.7c13.8,0,25,11.2,25,25c0,13.8-11.2,25-25,25H66.7
	C52.9,425,41.7,413.8,41.7,400z M641.7,400c0-13.8,11.2-25,25-25h66.7c13.8,0,25,11.2,25,25c0,13.8-11.2,25-25,25h-66.7
	C652.9,425,641.7,413.8,641.7,400z M400,641.7c13.8,0,25,11.2,25,25v66.7c0,13.8-11.2,25-25,25c-13.8,0-25-11.2-25-25v-66.7
	C375,652.9,386.2,641.7,400,641.7z"/>
<g class="st1">
	<path class="st2" d="M182.3,182.3c9.8-9.8,25.6-9.8,35.4,0l11.4,11.4c9.8,9.8,9.8,25.6,0,35.4s-25.6,9.8-35.4,0l-11.4-11.4
		C172.6,207.9,172.6,192.1,182.3,182.3z"/>
	<path class="st2" d="M617.7,182.3c9.8,9.8,9.8,25.6,0,35.4l-11.4,11.4c-9.8,9.8-25.6,9.8-35.4,0c-9.8-9.8-9.8-25.6,0-35.4
		l11.4-11.4C592.1,172.6,607.9,172.6,617.7,182.3z"/>
	<path class="st2" d="M229.1,570.9c9.8,9.8,9.8,25.6,0,35.4l-11.4,11.4c-9.8,9.8-25.6,9.8-35.4,0c-9.8-9.8-9.8-25.6,0-35.4
		l11.4-11.4C203.5,561.1,219.3,561.1,229.1,570.9z"/>
	<path class="st2" d="M570.9,570.9c9.8-9.8,25.6-9.8,35.4,0l11.4,11.4c9.8,9.8,9.8,25.6,0,35.4c-9.8,9.8-25.6,9.8-35.4,0l-11.4-11.4
		C561.1,596.5,561.1,580.6,570.9,570.9z"/>
</g>
<path class="st3" d="M233.3,368.6c0,84.7,67,129.9,116,170.3c17.3,14.3,34,27.7,50.6,27.7c16.7,0,33.3-13.4,50.6-27.7
	c49-40.4,116-85.6,116-170.3c0-84.7-91.7-144.8-166.7-63.4C325,223.8,233.3,283.9,233.3,368.6z"/>
</svg>
