<?xml version="1.0" encoding="UTF-8" standalone="no"?><svg xmlns="http://www.w3.org/2000/svg" xmlns:xlink="http://www.w3.org/1999/xlink" fill="#000000" height="502.1" preserveAspectRatio="xMidYMid meet" version="1" viewBox="-1.0 -0.2 424.0 502.1" width="424" zoomAndPan="magnify"><g id="change1_1"><path d="M262.37,24.17c0,0.01-0.01,0.03-0.01,0.04c-0.01,0-0.03,0.01-0.04,0.01 C262.31,24.23,262.37,24.17,262.37,24.17z M240.93,371.13c-0.01,0-0.02,0.01-0.03,0.01c0,0,0,0.01,0,0.01L240.93,371.13z M285.27,299.08c0,0,0.01,0,0.01,0c0.01-0.01,0.02-0.02,0.02-0.03L285.27,299.08z M174.41,182.23c-0.02,0-0.03,0.01-0.05,0.01 c-0.01,0.02-0.02,0.05-0.03,0.07L174.41,182.23z M281.15,253.91c0,0,0.01,0,0.01,0c0,0,0-0.01,0.01-0.01L281.15,253.91z M420.42,57.1c-0.23-0.1-0.46-0.13-0.71-0.1c-0.08,0.26-0.07,0.51,0.04,0.76c-5.79,6.93-10.37,14.61-14.15,22.79 c-1.13,0.07-1.63,0.72-1.67,1.8c-2.26,1.34-2.91,3.78-4,5.91c-0.53-0.07-0.77,0.13-0.64,0.68c-0.33,0.54-0.66,1.09-0.99,1.63 c-0.47,0.07-0.77,0.29-0.66,0.83c-0.07,2.34-2.42,3.58-2.8,5.78c0.11,0.21,0.15,0.43,0.13,0.66l-0.38,0.05l-0.37-0.08 c-0.82,0.3-0.86,1.05-1,1.74c-1.72,0.62-1.4,3.53-3.79,3.4c-0.21,0.84,0.18,1.91-0.91,2.43c-3.44,4.34-6.38,9.01-9.11,13.82 c-0.99,0.64-1.97,1.3-2.25,2.57c-2.48,3.8-4.83,7.68-7.51,11.33c-0.63,0.85-0.78,1.56-0.92,2.44c-1.08,0.08-1.71,0.61-1.75,1.75 c-0.73,0.85-1.46,1.71-2.19,2.56c0.05,1.19-0.62,1.65-1.72,1.65c-0.68,1.24-1,2.76-2.49,3.41c-0.55-0.14-0.75,0.1-0.66,0.63 c-3.85,5.21-7.71,10.42-11.56,15.63c-1.39,4.57-3.36,5.28-9.23,3.32l0,0c-2.68-2.48-5.35-4.97-8.03-7.45 c-0.28-0.89-0.61-0.72-0.96-0.05c-0.75,0.57-1.51,1.14-2.26,1.72c-2.22-0.01-4.44-0.02-6.66-0.04c1.18-2.68,3.49-4.91,3.25-8.16 c-2.86,0.78-3.23-1.57-4.11-3.28c-1.06-0.55-1.81-1.39-2.41-2.41c-3.06,0.04-3.85-3.15-6.11-4.4c-1.6-0.88-4.07-1.37-4.52-3.85 c-0.82-0.34-1.64-0.68-2.46-1.02c-0.55,0.12-0.76-0.1-0.65-0.65c-0.89-1.04-1.79-2.08-2.68-3.12c-1.76,0.4-2.38-1.17-3.42-2 c-2.49-1.43-4.79-3.06-6.36-5.54c-1.09-0.6-2.18-1.21-3.27-1.81c-1.55-1.89-3.86-2.7-5.75-4.12c-0.52,0.1-0.75-0.14-0.76-0.64 c-3.13-3.77-8.26-4.77-11.52-8.36c-1.21,0.34-1.67-0.27-1.79-1.34c-1.09-0.15-1.98-0.55-2.19-1.8c-0.82-1.97-3.92-1.56-4.24-4.05 c-2.87,0.02-4.19-2.18-5.75-4.03c-3.35-1.88-5.17-5.52-8.71-7.36c-1.27-0.66-1.2-0.74-2.26,0.12c-2.5,2.04-3.5,5.25-6.07,7.16 c-0.27,3.09-2.39,5.39-3.46,8.14c-0.02,0.49-0.24,0.75-0.76,0.7c-2.04,4.31-4.42,8.43-7,12.44c-0.5,0.78-0.65,1.59,0.38,2.43 c6.04,4.93,5.38,12.32,4.28,18.28c-0.88,4.79-0.98,9.88-2.64,14.57c-2.94,11.49-7.21,22.42-14.43,31.93 c-2.25,2.97-4.17,6.16-6.47,9.06c-1.97,2.48-3.18,5.14-3.52,8.24c0.23,0.2,0.47,0.41,0.7,0.61c4.91-0.25,9.81-0.49,14.72-0.74 c0.36-0.82,1.02-0.68,1.69-0.55c1.89-0.37,3.78-0.74,5.68-1.12c0.3-0.77,1.01-0.64,1.61-0.76c0.14-0.42,0.39-0.69,0.89-0.59 c6.08-1.45,12.19-2.79,17.99-5.19c0.55-1.12,1.66-0.49,2.47-0.79c1.49-0.97,3.11-1.52,4.89-1.57l0,0c0.1-0.46,0.34-0.74,0.86-0.61 c0.73-0.33,1.43-0.74,2.18-0.98c7.74-2.5,15.48-4.98,23.22-7.46c0.26-0.91,0.96-0.8,1.66-0.72c6.65-2.48,13.06-5.62,19.69-8.03 c4.51-1.64,6.97-4.28,9.26-8.1c1.97-3.3,4.37-6.52,7.89-8.55c2.22,0.01,4.44,0.02,6.66,0.04c-2.49,2.81-4.98,5.61-7.47,8.42 c-0.58-0.22-0.73,0.06-0.68,0.57c-0.66,1-1.17,2.17-2.02,2.99c-3.58,3.46-4.14,5.58-1.16,11.18c2.78,5.21,2.49,10.19,0.19,15.19 c-0.77,1.67-1.16,3.31-1.11,4.96c0.11,3.82-2.08,6.41-4.26,9.07c-1.08,0.1-1.81,0.48-1.44,1.76c-0.32,2.23,0.39,4.27,1.16,6.31 c1.76,4.69,1.39,9.56,1.12,14.42c-0.09,1.59-1.19,2.32-2.3,3.1c0.73,2.47-1.52,3.52-2.59,4.98c-3.31,4.48-1.78,9.85-3.07,14.67 c-0.03,0.82-0.06,1.64-0.09,2.46c0,3.02-2.17,5.15-3.29,7.69c-1.82,4.12-2.72,8.11-1.95,12.68c0.4,2.38-0.65,5.01-1.04,7.52 c0,0,0,0,0,0c0.68,4.72-3.67,7.38-4.64,11.43c-0.78,0.38-0.64,1.07-0.57,1.73c-0.86,0.86-1.71,1.73-2.57,2.59 c-0.55-0.12-0.76,0.12-0.68,0.65c-0.6,0.62-1.19,1.24-1.79,1.86c-0.5-0.11-0.7,0.08-0.57,0.59c-0.9,0.87-1.8,1.74-2.7,2.61 c-0.53-0.09-0.75,0.21-0.82,0.68c-0.82,0.52-1.65,1.04-2.47,1.56c-0.67,0.04-1.36,0.02-1.64,0.82c-1.37,1.35-2.74,2.7-4.12,4.05 c-1.44,1.1-2.88,2.21-4.32,3.31c-1.18-0.18-2.15,0.26-3,1.04c-1.19,0.4-2.56,0.59-2.66,2.27c-1.58,0.34-3.15,0.69-4.73,1.03 c-0.53-0.08-0.75,0.16-0.7,0.68c-2.77,1.13-5.54,2.26-8.3,3.39c-3.24,0.66-3.79,2.82-3.15,5.65c-0.36,1.9-0.73,3.79-1.09,5.69 c-0.61,0.43-1.34,0.78-1.34,1.7c-0.02,1.37-0.04,2.73-0.06,4.1c-0.58,1.1-1.88,1.79-1.83,3.25c-1.65,3.38-3,6.81-2.05,10.69 c0.21,0.82,0.41,1.65,0.62,2.47c-0.28,2.75-0.56,5.49-0.85,8.24c-1.43,0.33-0.71,1.56-0.99,2.37c-1.01,0.53-1.77,1.21-1.44,2.52 c-1.56,1.27-1.57,4.08-4.22,4.26c-0.52,0.23-1.03,0.46-1.55,0.69c-0.06,0.23-0.1,0.47-0.12,0.71l-0.4,0.05l-0.38-0.13 c-2.19,0.12-4.39,0.24-6.58,0.35c-0.53-0.11-0.79,0.08-0.77,0.64l-0.38-0.1c0.31,1.12,0.48,2.24,0.08,3.38 c-1.14,3.12-1.28,6.65-3.84,9.17c-0.54-0.11-0.75,0.12-0.66,0.65c-0.32,0.31-0.65,0.62-0.97,0.93c-0.53-0.07-0.77,0.23-0.87,0.7 c-0.26,0.26-0.52,0.51-0.79,0.77c-1.79-0.15-1.83,1.55-2.61,2.47c-2.12-0.22-4.26,1.08-6.37-0.06c0.26-1.63,0.52-3.25,0.78-4.88 c4.03-1.62,7.75-3.58,9.22-8.11c0-3.01,0-6.02,0-9.03c0.01-0.55,0.03-1.09,0.04-1.64l0,0c-0.03-0.55-0.05-1.1-0.08-1.65l0,0 c-2.07-2.64-2.05-6.08-3.42-8.99c-0.47-0.09-0.76-0.31-0.65-0.85c-1.87-6.98-6.59-12.73-8.46-19.71c0.08-0.54-0.17-0.76-0.69-0.7 c-3.55-5.56-8.21-10.4-10.68-16.66c-0.53,0.08-0.76-0.12-0.64-0.67c-2.63-3.36-5.04-6.88-7.94-10.05c-3.45-3.77-8.9-5.43-13.55-3.74 c-0.54-0.13-0.76,0.09-0.67,0.63c-0.44,1.83-2.88,2.67-2.43,4.94c-0.01,0.82-0.02,1.64-0.02,2.47 c-2.49,12.23,3.68,21.16,11.23,29.57c0.03,1.09,0.56,1.71,1.66,1.82c4.36,8.38,11.52,15.06,14.61,24.21c0.3,0.61,0.6,1.22,0.89,1.83 c1.42,1.65,2.44,3.5,2.77,5.68c1.16,0.96,0.52,2.2,0.5,3.34c0.45,0.77,1.24,1.42,0.87,2.48c1.67,1.33,0.53,5.17,4.21,4.7 c1.08,0.04,2.16,0.07,3.24,0.11c-0.26,1.63-0.52,3.25-0.78,4.88c-0.55,0-1.1-0.01-1.65-0.01c-0.27,0.1-0.54,0.2-0.81,0.3 c-1.22-0.24-1.96,0.01-1.57,1.48c0.78,5.8-3.11,9.68-5.75,14.08c-0.58,1.06-1.42,1.84-2.52,2.34c-2.95,3.9-7.12,3.54-11.21,3.02 c-1.73-0.22-3.41-0.78-5.19-0.47c-0.61-0.19-1.1-0.15-1.23,0.61c-0.86,3.69-3.27,6.24-6.14,8.46c-0.52-0.07-0.74,0.16-0.69,0.67 c-1.17,1.89-3.16,2.59-5.05,3.44c-0.55-0.11-0.75,0.19-0.82,0.67c-1.09,0.31-2.18,0.62-3.26,0.93c-1.92,0.04-3.96-0.94-5.71,0.61 c-0.53-1.37-1.78-1.84-2.96-2.12c1.18,0.28,2.43,0.75,2.96,2.12c0,0,0,0,0,0c0.01,0.02,0.02,0.03,0.02,0.05l0,0.01 c0,0.01,0,0.02,0,0.02c-1,0.51,0,1.05-0.02,1.57c0.52,0.09,1.04,0.17,1.56,0.26c0.06,0.63,0.05,1.31,0.89,1.47 c0.69,1.51,0.24,2.8-0.76,3.98c-2.53,2.99-3.45,7.27-7.3,9.22c-0.12,1.16-0.72,1.99-1.77,2.48c-0.6,0.9-1.07,1.84-0.94,2.97 c-1.61,0.61-2.83,1.61-3.25,3.37c-2.17,1.08-2.97,3.24-4.05,5.17c-0.31,0.22-0.61,0.45-0.92,0.67c-1.34,1.9-2.68,3.79-4.02,5.69 c-0.55,0.54-1.1,1.09-1.64,1.63c-0.94,0.87-1.47,1.95-1.66,3.21c-1.5,0.26-2.56,0.88-2.25,2.67c-2.68,1.52-2.85,5.25-5.77,6.57 c0.12,1.93-0.58,3.37-2.45,4.11c-0.14,2.53-1.24,4.49-3.41,5.84c-0.54-0.09-0.76,0.12-0.65,0.67c-0.6,0.6-1.2,1.21-1.81,1.81 c-0.56-0.12-0.75,0.11-0.64,0.65c-2.5,3.59-5.53,0.08-8.25,0.61c-0.1-0.32-0.2-0.64-0.3-0.96c-0.76-0.2-1.51-0.41-2.27-0.61 c-0.27,0.09-0.55,0.18-0.82,0.27c-0.52-0.05-1.03-0.1-1.55-0.15c-0.06-0.23-0.1-0.47-0.12-0.71c-0.97-0.68-2.04-1.03-3.23-0.95 c-0.28-0.78-1.02-0.69-1.63-0.85c-0.8-1.44-2.21-0.45-3.27-0.84c-0.1-0.36-0.19-0.71-0.29-1.07c-1.28-0.49-2.56-0.97-3.85-1.46 c-1.85,0.06-3.44-0.63-4.92-1.67c-3.65,0.01-6.3-2.99-9.86-3.26c-0.21,0.12-0.44,0.17-0.68,0.14c-0.06-0.26-0.03-0.52,0.09-0.76 c-0.38-0.87-1.07-0.88-1.84-0.68c-1.06-0.34-2.13-0.67-3.19-1.01c-0.61-1.53-1.95-1.67-3.33-1.71c-1.96-0.71-3.6-2.18-5.75-2.42 c-0.28-0.29-0.56-0.57-0.84-0.86c-0.55,0.08-1.09,0.16-1.64,0.24c-0.27-0.1-0.55-0.21-0.82-0.31c-1.9-0.79-3.37-2.62-5.7-2.37 c-1.16-1.82-3.21-2.18-4.95-3.04c-1.08-0.35-2.16-0.71-3.25-1.06c-0.57-1.59-1.95-1.56-3.27-1.65c-0.46-1.06-1.26-1.6-2.42-1.58 c-0.85-1.85-2.56-1.61-4.14-1.7c-1.66-1.04-3.32-2.07-4.98-3.11c-1.09-0.82-2.19-1.63-3.28-2.45c-4.12-1.54-5.82-5.73-8.98-8.33 c-0.53-0.44-1-0.81-1.63-1c-1.27-0.13-1.65-0.97-1.72-2.09c-2.31-0.28-2.64-3.23-4.86-3.62c-0.53,0.11-0.74-0.1-0.62-0.63 c-0.11-0.24-0.18-0.49-0.21-0.75c-2.19-1.35-4.26-2.84-5.77-4.98c-3.19-2.89-3.44-5.19,0.29-9.24c2.68-2.92,4.11-6.48,6.37-9.57 c1-0.72,2.48-0.96,2.58-2.58c-0.11-0.23-0.14-0.47-0.08-0.72c0.25-0.06,0.49-0.03,0.73,0.07c0.78-0.34,0.81-1.06,0.92-1.75 c0.3-0.29,0.59-0.59,0.89-0.88c0.2-0.31,0.41-0.61,0.61-0.92c1.38-1.91,2.77-3.82,4.15-5.73c0.57,0.13,0.75-0.24,0.89-0.68 c0.3-0.29,0.6-0.58,0.9-0.87c-0.12-0.54,0.12-0.75,0.65-0.67c1.05-0.56,1.68-1.43,1.87-2.62c-0.14-0.52,0.09-0.69,0.58-0.61 c3.25-2.62,5.04-6.47,7.8-9.53c0.95-1.06,2.01-1.96,3-2.96c0.32-1.25,1.29-1.92,2.29-2.57c0.34-0.52,0.68-1.04,1.02-1.56 c-0.08-0.51,0.13-0.73,0.64-0.64c0.79-0.61,1.58-1.23,2.37-1.84c0.05-0.5,0.09-1.01,0.14-1.51c0.52-0.08,1.03-0.16,1.55-0.24 c0.05-0.49,0.09-0.97,0.14-1.46c0.55-0.56,1.11-1.12,1.66-1.69c-0.06-0.52,0.23-0.76,0.7-0.86c3.6-3.8,6.34-8.39,10.58-11.61 c0.02-0.7,0.17-1.32,0.92-1.59c0.55,0.11,0.75-0.23,0.89-0.68c0.52-0.57,1.03-1.14,1.55-1.71c0.28-0.28,0.56-0.56,0.84-0.84 c0.79,0.16,1.44-0.01,1.85-0.77c0.2-0.21,0.4-0.42,0.6-0.64c0.73-0.59,1.5-1.11,2.5-1.07l0.17,0.35c0.73,0.19,1.45,0.39,2.18,0.58 c0.4,0.97-0.63,2.41,1.01,3.08c0.82-1.05,1.62-2.07,2.41-3.09c2.48-1.14,3.68-3.45,4.83-5.68c0.49-0.95,1.3-0.71,1.86-1.16 c1.03-0.37,1.48-1.18,1.66-2.2l0,0c-0.14-0.25-0.18-0.51-0.11-0.79c0.25-0.03,0.49,0.01,0.72,0.12c4.37-5.03,8.74-10.06,13.11-15.09 c0.54,0.11,0.75-0.12,0.66-0.65c1.35-1.04,2.72-2.06,3.29-3.78c2.73-1.57,4.19-4.43,6.54-6.39c0.07,0.21,0.11,0.44,0.12,0.66 c-0.01-0.23-0.04-0.45-0.12-0.66c0.06-0.43,0.12-0.85,0.18-1.28c0.29,0.01,0.54-0.02,0.76-0.08c-0.21,0.06-0.47,0.09-0.76,0.08 c-0.02-0.33-0.04-0.66-0.06-0.99c-1.06,0.57-1.68,2.06-3.25,1.6c0.05-0.2,0.12-0.39,0.2-0.56c-0.08,0.17-0.15,0.36-0.2,0.56 c-2.8,1.67-5.61,3.34-8.41,5c-2.09-0.09-3.59,1.55-5.53,1.89c-0.56-0.14-0.74,0.13-0.68,0.65c-3.31,2.02-7,2.79-10.77,3.32 c-0.82,1.46-2.26,0.17-3.29,0.74c-0.55,0.05-1.09,0.11-1.64,0.16c-1.93-0.28-3.93-0.18-5.73-1.09c-1.36,0.1-2.43-0.45-3.28-1.47 c-1.42-0.01-2.86,0.08-4.09-0.85c-0.3-0.26-0.6-0.51-0.9-0.77c-0.8-0.61-1.6-1.21-2.4-1.82c-0.55,0.11-0.77-0.11-0.65-0.66 c-2.85-5.37-1.49-9.7,3.02-13.5c2.15-1.81,3.92-4.06,5.87-6.11c0.53-0.06,1.05-0.12,1.58-0.18c0.31-0.78,0.62-1.56,0.93-2.34 c0.78-0.31,1.56-0.63,2.35-0.94c5.25-5.17,10.22-10.65,16.34-14.86c1.12-1.3,2.25-2.6,3.37-3.9c0.5-1.15,1.78-1.88,1.78-3.31 c-0.08-0.53,0.15-0.75,0.67-0.68c1.43-0.67,1.68-2.22,2.48-3.35c0.47-0.12,0.79-0.35,0.68-0.91c0.5-1.19,1.99-1.78,1.97-3.28 c-0.15-0.53,0.11-0.7,0.6-0.66c0.6-0.59,1.2-1.18,1.8-1.77c0.19-2.86,2.56-4.76,3.28-7.38c0.34-1.21,1.12-1.98,2.3-2.36 c1.07-0.58,0.7-1.7,0.97-2.59c-0.12-0.55,0.12-0.76,0.66-0.68c4.53-8.16,11.11-14.81,16.55-22.29c-0.11-0.55,0.11-0.76,0.65-0.65 c1.47-0.64,1.63-2.26,2.5-3.36c1.05-0.07,1.66-0.59,1.71-1.68c2.18-1.31,2.97-4.2,5.65-4.94c0.6-1.45,1.19-2.92,3.21-2.64 c0.52-0.51,1.04-1.02,1.56-1.53c0.86-0.83,1.71-1.67,2.57-2.5c0.25-0.86,1.03-0.67,1.64-0.83c1.8-2.25,4.52-3.3,6.72-5.03 c1.08-0.85,1.77-1.54,1.58-2.92c2.07-1.43,1.82-3.95,2.76-5.91c1.56-3.01,3.12-6.02,4.68-9.03c0.24-0.23,0.47-0.46,0.71-0.68 c1.92-4.04,4.03-7.96,6.62-11.62c-0.03-0.51,0.18-0.77,0.72-0.66c0.81-0.34,0.76-1.16,1.01-1.81c-0.08-0.55,0.19-0.71,0.69-0.61 l-0.08-0.3c0.57,0.11,0.79-0.23,0.92-0.69c2.63-3.04,4.83-6.38,6.75-9.9c-0.15-0.5,0.08-0.66,0.55-0.6c2.2-3.05,4.4-6.09,6.6-9.14 c1.11-0.06,1.81-0.47,1.52-1.75c1.99-1.16,3.43-2.8,4.34-4.91c-0.1-0.54,0.13-0.75,0.66-0.66c1.03-1.44,2.06-2.88,3.09-4.32 c0.63-1.53,0.95-3.25,2.63-4.1c1.13-3.41,3.69-5.96,5.52-8.95c0.66-1.09,1.08-2.09,1.2-3.3c-0.1-0.54,0.21-0.75,0.66-0.87 c3.1-2.91,2.67-7.8,5.93-10.62c-0.08-0.54,0.18-0.71,0.68-0.63c2-4.14,4.63-7.46,9.8-7.42c2.08-0.86,3.79,0.86,5.76,0.83 c0.53-0.1,0.75,0.22,0.88,0.66c0.26,0.05,0.5,0.02,0.73-0.11c1.34,0.37,2-0.3,2.31-1.51c0.1-0.28,0.21-0.56,0.31-0.84 c-0.1-0.53,0.08-0.77,0.64-0.59c3.32-5.8,5.43-12.29,9.84-17.47c0.61-2.97,3.12-5.13,3.48-8.2c0.2-0.22,0.41-0.44,0.61-0.66 c0.89-1,1.71-2.01,1.14-3.49c-1.65,0.43-2.44-0.97-3.56-1.68c-0.83-0.31-1.66-0.61-2.49-0.92c-0.03-0.56-0.07-1.12-0.1-1.69 c-0.07-0.41-0.13-0.83-0.2-1.24c-0.4-0.07-0.79-0.14-1.19-0.21c-0.75-2.51-3.98-3.56-3.87-6.58c-0.2-0.2-0.26-0.44-0.19-0.71 c-0.11-1.15,0.8-0.81,1.38-0.95c0.92-1.33,1.83-2.66,2.75-3.99c-0.33-1.11,0.06-1.7,1.23-1.73c0.24-1.27,0.81-2.35,1.77-3.21 c-0.09-1.62,0.45-2.91,1.94-3.71c0,0,0.08-0.11,0.08-0.11c0.4-0.65,0.26-1.61,1.15-1.97c0.38-0.81,0.76-1.61,1.14-2.42 c-0.07-0.54,0.19-0.73,0.7-0.63l-0.08-0.29c0.56,0.13,0.79-0.22,0.92-0.68c0.21-0.03,0.43-0.06,0.64-0.06 c0.8-2.36,2.4-4.14,4.17-5.79c0.52-2.77,2.89-4.31,4.3-6.49c-0.11-0.53,0.12-0.74,0.64-0.67c1.11-1.91,2.23-3.81,3.34-5.72 c1.1-0.09,1.8-0.51,1.48-1.79c0.77-1.72,3.04-2.14,3.51-4.12c-0.05-0.55,0.19-0.76,0.73-0.66l-0.08-0.28 c0.54,0.13,0.78-0.18,0.93-0.61c0.41-0.14,0.72-0.36,0.6-0.88c0.62-1.31,1.23-2.63,1.85-3.94c1.04-0.18,1.74-0.63,1.45-1.86 l0.28,0.07c-0.11-0.24-0.16-0.49-0.13-0.76c0.26-0.08,0.52-0.13,0.79-0.14c0.25-0.26,0.5-0.52,0.75-0.78h0 c0.24-0.55,0.48-1.09,0.72-1.64c0.62-1.05,1.24-2.1,1.85-3.15l0.39-0.02l0.39,0.05c0.6-0.47,0.91-1.05,0.69-1.84l0.28,0.07 c-0.12-0.55,0.18-0.77,0.66-0.86c0.58-0.54,1.16-1.09,1.74-1.63c0.25-0.03,0.48-0.08,0.68-0.15c-0.2,0.07-0.43,0.12-0.68,0.15 c0.77-1.12,1.55-2.25,2.32-3.37c0.3-1.92,1.37-3.1,3.32-3.42c1.45-0.26,2.87-0.08,4.25,0.41c0.49,0.02,0.98,0.03,1.48,0.05 c0.4,0.64,1,0.63,1.64,0.53c5.18,1.66,10.36,3.32,15.54,4.99c0.08,0.47,0.3,0.78,0.84,0.69c0.59,0.23,1.36,0.13,1.66,0.9 c0.54,0.06,1.08,0.11,1.62,0.17c1.26-0.3,2.39-0.12,3.27,0.92c1.8,0.37,3.61,0.74,4.95,2.17c1.34,0.41,2.97-0.62,4.09,0.84 c0.88,0.19,1.95-0.21,2.55,0.83c1.06,0.33,2.11,0.67,3.17,1c0.94-0.09,1.95-0.47,2.61,0.62c0.51,0.09,1.02,0.19,1.52,0.28l0,0 c0.53-0.16,0.73,0.15,0.83,0.59c1.15,0.4,2.42,0.54,3.26,1.58c1.13,0.2,2.49-0.49,3.31,0.87c0.83,0.18,1.91-0.44,2.44,0.75 c1.19-0.22,1.97,1.3,3.24,0.77c0.82,0.06,1.63,0.12,2.45,0.17c0.28,0.33,0.55,0.66,0.83,1c-0.91,0.58-1.73,0.86-2.48,0.89 c-0.3,0.01-0.59-0.01-0.86-0.08c0.28,0.06,0.56,0.09,0.86,0.08c0.75-0.03,1.57-0.31,2.48-0.89c0.7-0.03,1.4-0.05,2.1-0.08 c0.14,0.45,0.28,0.91,0.42,1.36c1.17-0.11,1.93,1.38,3.22,0.84c0.51,0.06,1.02,0.11,1.54,0.17c0.15,0.43,0.38,0.75,0.91,0.63 c0.81,0.39,1.96-0.19,2.54,0.88c1.07,0.35,2.14,0.7,3.21,1.05c2.18,0.52,4.36,1.03,6.54,1.55c0.96,0.81,1.84,1.77,3.29,1.45 c2.39,0.39,4.36,1.77,6.52,2.71c0.34,0.84,1.01,0.7,1.68,0.57c0.83,0.19,1.67,0.37,2.5,0.56c1.82,0.29,3.33,1.27,4.87,2.19 c1.66-0.39,2.98,0.24,4.16,1.34c1.83,0.5,3.66,1,5.5,1.5c0.61,0.06,1.21,0.12,1.82,0.19c1.36,0.19,2.35,1.01,3.28,1.93 c0.88-0.02,1.8-0.18,2.46,0.63c2.51-0.21,4.03,1.1,5,3.26c2.36-0.51,3.21,1.76,4.83,2.62c1.53-0.49,2.03,1.16,3.16,1.51 c0.05,0.51,0.11,1.03,0.16,1.54c0.55-0.01,1.1-0.03,1.65-0.04c0,0-0.08,0.3-0.08,0.3c0.55-0.09,0.8,0.13,0.73,0.7l0.31-0.08 c-0.02,0.27-0.04,0.54-0.06,0.82c0.24,0.02,0.47-0.02,0.68-0.13C421.24,52.05,422.99,54.06,420.42,57.1z M103.31,316.95 c1.31,0.28,1.93-0.61,2.54-1.51c2.7-2.51,5.41-5.02,8.11-7.52c1.2,0.14,2.06-0.23,2.3-1.54c0.67-1.47,2.01-1.66,3.38-1.78 c0.19-0.45,0.38-0.89,0.56-1.34c0.55-1.25,1.88-1.15,2.85-1.66c0-0.01,0.06-0.05,0.06-0.06c0.32,0.56,0.73,1.14,0.54,1.68 c0.19-0.54-0.22-1.11-0.54-1.68c-0.61-2.2,1.77-2.17,2.5-3.37l0,0c-0.12-0.53,0.1-0.72,0.62-0.65c3.15-1.53,5-3.95,5.08-7.55 c0.22-0.29,0.43-0.58,0.65-0.88c2.86-6.29,2.77-12.94,2.34-19.62c0-1.09,0-2.19,0-3.28c0-1.09,0.01-2.19,0.01-3.28 c0.38-1.09,0.76-2.19,1.14-3.28c-0.1-0.82-0.21-1.64-0.31-2.47c0.27-0.56,0.09-1.37,0.87-1.66c0.93-5.33,1.67-10.7,4.28-15.57 c0.03-0.82,0.06-1.65,0.09-2.47c-0.41-3.05,2.93-5.08,2.21-8.21c1.96-3.05,0.4-3.56-2.32-3.23c-0.32,0.8-0.65,1.6-0.97,2.4 c-0.53,0.32-1.06,0.64-1.59,0.95c-0.51-0.05-0.75,0.17-0.68,0.69c-2.21,2.46-4.72,4.66-7.07,6.95c-4.11,4.02-6.69,9.28-11.11,12.95 c-0.53-0.14-0.74,0.07-0.62,0.6c-0.12,0.29-0.23,0.57-0.35,0.86c-0.21,0.21-0.43,0.43-0.64,0.64c-4.96,5.49-7.57,12.55-12.24,18.23 c-0.04,0.78-0.07,1.55-0.11,2.33c-1.12,0-1.75,0.52-1.78,1.68c-0.21,0.01-0.41,0.04-0.61,0.08c-0.09,1.76-0.18,3.52-2.28,4.18 c-0.62,1.3-1.25,2.61-1.87,3.91c-0.46,0.13-0.78,0.38-0.71,0.92c-0.3,0.31-0.6,0.63-0.9,0.94c-0.52-0.05-0.77,0.14-0.65,0.69 c-0.35,0.71-0.64,1.46-1.07,2.12c-3.61,5.49-8.95,9.4-13.18,14.32c0.1,0.53-0.12,0.75-0.65,0.65c-0.28,0.11-0.55,0.22-0.83,0.33 c-1.28-0.31-1.76,0.2-1.53,1.47c-0.15,0.19-0.21,0.41-0.18,0.65c-1.14,0.39-2.43,0.54-3.05,1.82c-6.07,5.52-12.14,11.03-18.2,16.55 c-0.5-0.06-0.75,0.12-0.62,0.65c-0.45,1.31,0.31,1.99,1.32,2.54c0.02,1.72,0.53,2.88,2.59,2.29c0.62,0.37,1.25,0.75,1.87,1.12v0 c6.45,2.44,12.71,2.21,18.91-1.02c4.34-2.26,8.44-5.15,13.49-5.78c1.22-0.92,0.87-3.62,3.42-3.04 C99.66,318.11,101.76,318.02,103.31,316.95z M123.59,303.36c0.02-0.04,0.04-0.08,0.05-0.12 C123.63,303.28,123.61,303.32,123.59,303.36z M103.21,322.68c0,0,0.01,0.01,0.01,0.01L103.21,322.68L103.21,322.68z M103.33,322.81 l-0.03-0.03C103.31,322.8,103.33,322.81,103.33,322.81z M103.14,327.82c0.06-0.35,0.11-0.71,0.13-1.05 C103.26,327.11,103.2,327.46,103.14,327.82z M154.16,434.33C154.16,434.33,154.16,434.33,154.16,434.33 c-0.22-0.17-0.45-0.34-0.67-0.51C153.71,433.98,153.94,434.15,154.16,434.33z M173.6,415.47c-0.1-1.98-2.29-3.47-2.3-5.7 c-1.02-0.51-1.71-1.21-1.38-2.48c-0.56-1.04-1.12-2.07-1.69-3.11c-4.19-8.02-7.32-16.6-12.8-23.93c-1.05-1.41-0.24-3.19-0.58-4.76 c-1.66,0.09-2.32-0.97-2.87-2.32c-3.18-7.86-7.89-15.04-10.35-23.22c-1.27-0.78-1.78-1.89-1.41-3.36c-1.62-0.87-3.03-1.84-4.08-3.53 c-2.42-3.92-6.31-3.17-9.81-2.2c-3.15,0.87-3.21,3.81-3.44,6.63c-0.5,6.25,0.61,12.14,3.11,17.85c4.62,10.57,7.01,21.89,10.8,32.75 c0.46,1.31,1.06,2.4,1.74,3.53c0.5,0,0.77,0.22,0.68,0.75c1.66,1.45,1.04,3.7,1.86,5.55c1.69,3.84,4.18,7.41,4.9,11.67 c0.79,1.65,3.37,1.84,3.36,4.14c-0.11,0.55,0.12,0.76,0.66,0.66c0.28,0.3,0.57,0.59,0.85,0.89c4.05,2.67,8.4,3.41,13.08,2.08 c0.8-0.13,1.6-0.26,2.39-0.39c0.59-1.76,2.29-2.28,3.64-3.06C173.35,421.96,173.77,418.71,173.6,415.47z M168.84,342.56 c-0.45-0.12-0.76-0.35-0.69-0.88c0.05-1.48-1.31-2.27-1.98-3.21c-3.4-4.77-5.75-10.34-10.43-14.17c-0.53,0.08-0.75-0.15-0.68-0.67 c-6.1-2.87-11.23,0.24-11.6,7.05c-0.28,5.12-0.01,10.17,1.76,15.05c0.83,0.35,0.66,1.03,0.55,1.68c3.06,4.84,4.84,10.23,6.79,15.55 c0.28,0.11,0.56,0.23,0.84,0.34c0,0.64-0.01,1.28-0.01,1.93c0.9,0.68,1.74,1.38,1.4,2.7c1.06,1.54,2.5,2.88,2.68,4.9 c5.68,9.17,10.33,18.86,14.69,28.71c3.39,0.85,3.69,4.06,4.8,6.53c2.47,5.48,11.4,6.79,15.73,2.8c2.71-2.5,3.3-6.06,5.79-8.47 c-0.08-2.45-0.15-4.9-0.23-7.34c-0.94-1.5-0.82-3.22-1-4.88c-1.9-4.75-3.27-9.74-6.28-13.98c-0.49-0.08-0.76-0.34-0.66-0.87 c-0.07-0.81-0.15-1.63-0.22-2.44c-1.11-0.53-1.79-1.48-2.44-2.47c-2.11-4.82-5.25-9.01-8.15-13.34c-0.55,0.14-0.74-0.09-0.65-0.62 C176.34,351.22,171.83,347.43,168.84,342.56z M234.43,365.34l-0.4,0.07l-0.4-0.06c0.03-1.34,0.07-2.67,0.1-4.01 c2.46-6.66,1.07-12.96-1.8-19.11c-0.48,0.11-0.67-0.06-0.53-0.55c-0.2-1.05-0.43-2.03-0.99-3.01c-4.5-7.84-8.62-15.9-13.77-23.36 c0.07-1.48-1.58-1.92-1.9-3.16c-0.26-0.02-0.52-0.06-0.77-0.13c-0.04-0.25-0.01-0.49,0.1-0.71c-2.8-3.05-4.88-6.75-8.35-9.2 c-0.54,0.12-0.75-0.1-0.65-0.64c-1.2-1.69-2.69-3-4.58-3.91c-4.71-2.26-8.13-1.35-9.52,3.46c-1.44,4.98-2.48,10.32,2.49,14.39 c0.12,0.97,0.3,1.88,1.63,1.63c1.69,2.47,3.39,4.94,5.08,7.41c-0.08,0.55,0.18,0.73,0.69,0.65l-0.08,0.31 c0.52-0.09,0.76,0.1,0.68,0.65c0.52,1.66,0.93,3.39,2.86,4.06c-0.34,1.3,0.34,2.04,1.4,2.58c0.01,0.28,0.09,0.53,0.22,0.77 c-0.07,0.47,0.09,0.69,0.59,0.57c0.63,2.76,2.86,4.52,4.25,6.81c-0.07,0.52,0.14,0.78,0.69,0.72c2.3,3.01,3.54,6.55,5.07,9.95 c-0.11,0.53,0.17,0.81,0.63,0.96c1.4,4.82,2.8,9.64,4.2,14.46c0.45,0.17,0.77,0.42,0.67,0.97c0.42,0.83,0.89,1.64,1.26,2.49 c2.26,5.27,3.08,5.47,8.33,3.39c2.52-1,2-3.24,2.86-4.92C237.11,367.66,235.63,366.51,234.43,365.34z M242.17,331.55 c-0.58-1.09-3.88,1.27-6.1,1.46c-0.24,0.02-0.44,0.3-0.68,0.4c-1.21,0.51-1.33,1.63-0.57,2.25c2.38,1.95,1.98,5.13,4.05,8.33 c0.6-2.14,1.52-3.36,2.07-4.57C242.03,336.95,243.39,333.85,242.17,331.55z M222.98,156.98c0.49-0.54,0.98-1.07,1.47-1.61 c0.5-1.59-0.5-3.41,0.77-4.87c0.11-1.64,0.21-3.29,0.32-4.93c0.6-2.18,1.46-4.32,1.77-6.55c0.79-5.78,0.43-11.28-5.1-14.94 c-0.1-1.6-1.49-1.65-2.53-2.13c-0.81-0.08-1.62-0.16-2.43-0.24c-1.45-2.07-2.7,0.49-4.08,0.17c-0.04,0.25,0,0.49,0.09,0.71 c-3.28,3.94-5.25,8.63-7.5,13.16c-0.46,0.04-0.78,0.21-0.64,0.76c-0.08,0.8-0.15,1.59-0.23,2.39c-1.87,1.5-3.5,3.14-3.33,5.81 c-1.49,0.79-2.12,2.31-3.04,3.59c-1.38,1.92-1.94,4.47-4.27,5.68c-0.5-0.11-0.7,0.08-0.59,0.59c-1.55,2.44-3.41,4.7-4.31,7.52 c-1.23,0.28-1.73,1.12-1.75,2.32c-3.02,1.19-4.25,3.93-5.65,6.52c-0.46,0.12-0.74,0.36-0.64,0.88c-0.88,3.01-4.58,4.06-5.1,7.32 c-1.02,0.8-1.43,1.96-1.85,3.12c-2.75,0.63-4,2.6-4.56,5.17c-1.06,1.92-3.75,2.84-3.44,5.6c-2.43,0.44-2.24,2.46-2.53,4.19 c-2.96,2.15-3.47,5.68-4.91,8.69c-1.02,0.29-1.74,0.79-1.38,2.02c-2,4.37-4,8.75-6.01,13.12c-0.26,0.14-0.46,0.27-0.59,0.41 c0.13-0.14,0.33-0.27,0.59-0.41c0,0.55,0,1.1,0,1.65c0.07,1.38-0.03,2.67-1.59,3.25c-0.08,1.06-0.17,2.12-0.25,3.17 c-0.58,0.5-0.53,1.13-0.37,1.78c-0.28,0.6-0.56,1.21-0.84,1.81c-0.23-0.34-0.43-0.68-0.61-1.02c0.18,0.33,0.38,0.67,0.61,1.02 c0.3,2.5-2.78,3.81-2.23,6.39c-0.07,0.55-0.15,1.1-0.22,1.64c-0.07,0.67,0.02,1.43-0.24,2.01c-3.71,8.23-3.51,17.27-5.37,25.88 c-0.18,1.46-0.7,2.96,0.54,4.24c-0.7,1.85,0.13,3.71-0.05,5.57c-0.91,0.67-0.77,1.58-0.58,2.51c-0.19,5.67-3.37,10.38-5.05,15.57 c-0.46,0.07-0.75,0.29-0.65,0.81c-2.54,2.73-5.09,5.46-7.63,8.19c-1.06,0.47-1.63,1.28-1.67,2.45c-1.06,0.9-2.11,1.79-3.17,2.69 c-0.24-0.15-0.5-0.19-0.78-0.11c-0.05,0.24-0.07,0.49-0.07,0.73c-1.11,1.62-2.22,3.25-3.33,4.87c0,0,0.02-0.04,0.02-0.04 c-2.69,2.26-4.03,5.83-7.27,7.55c-0.01,0.71-0.02,1.43-0.86,1.72c-0.53-0.1-0.75,0.21-0.86,0.66c-0.24,0.04-0.48,0.09-0.71,0.15 c0.84,2.49-2.99,2.42-2.56,4.68c-0.5,0.05-1.01,0.1-1.51,0.14c-0.08,0.52-0.15,1.04-0.23,1.56c-0.78,0.82-1.56,1.64-2.34,2.46 c-0.54,0.61-1.08,1.23-1.63,1.84c-0.53-0.09-0.76,0.11-0.64,0.65c-0.1,0.25-0.17,0.5-0.2,0.77c-0.81,0.62-1.63,1.24-2.44,1.86 c-0.53-0.09-0.75,0.11-0.64,0.65c-0.34,0.52-0.68,1.04-1.02,1.56c-2.98,3.08-5.86,6.24-8.2,9.85c-3.2,2.08-4.09,6.22-7.37,8.22 c-0.46,0.13-0.75,0.36-0.64,0.9c-2.58,2.42-4.69,5.24-6.74,8.11c-0.78,0.31-1.35,0.84-1.64,1.64c-0.25,0.06-0.5,0.12-0.74,0.18 c-0.05,6.14,4.08,10.18,7.6,14.35c4.15,4.92,9.63,8.64,13.01,14.28c-0.12,0.55,0.09,0.75,0.63,0.61c0.23,0.12,0.48,0.2,0.74,0.24 c0.1,0.5,0.37,0.76,0.9,0.65c1.42,1.42,2.85,2.83,4.27,4.25c-0.11,0.54,0.09,0.77,0.64,0.62c1.92,1.71,3.84,3.41,5.76,5.12 c0.46,0.07,0.82,0.23,0.74,0.81c3.69,2.26,6.35,5.99,10.52,7.54c4.83,1.79,8.83,5.06,13.34,7.41c0.32,0.24,0.65,0.47,0.97,0.71 c0.81,0.53,1.61,1.06,2.42,1.6c-0.1,0.23-0.12,0.47-0.09,0.71l0.39,0.04l0.37-0.14c1.88,0.34,4.16-0.04,4.69,2.67 c1.17,1.44,3.74,0.31,4.54,2.45c0.48,1.3,0.99,0.76,1.51,0.03c0.52-0.03,1.05-0.07,1.57-0.1l0.24-0.22c0.43-0.45,0.87-0.89,1.3-1.34 h0c0.15-0.62,0.02-1.38,0.84-1.66c0.05-0.47,0.11-0.94,0.16-1.42c1.39-0.18,2.25-0.86,2.24-2.37c-0.78-0.44-1.56-0.87-2.34-1.31 l-0.37,0.12l-0.39-0.04c-0.03-0.25,0.01-0.48,0.12-0.7c-0.34-0.52-0.68-1.05-1.02-1.57c-1.1-0.06-1.83-0.42-1.44-1.73 c-0.07-0.51-0.14-1.02-0.21-1.53c-0.87-0.27-2.11,0.2-2.6-0.76c-2.47-4.8-5.43-9.41-6.15-14.94c-0.03-0.55-0.05-1.1-0.08-1.65 c-2.61-2.77-2.97-6.58-4.53-9.84c0.09-0.68,0-1.27-0.7-1.61c0.13-3.17-2.26-5.66-2.39-8.77c-0.25-0.08-0.49-0.18-0.72-0.3 c-0.31-0.55-0.62-1.1-0.92-1.64c0.09-0.55,0.18-1.1,0.27-1.64c0.01-2.42-1.64-4.23-2.35-6.38c-0.04-1.43-0.08-2.86-0.12-4.29 c-0.29-0.29-0.58-0.57-0.87-0.86c-0.15-0.61,0-1.38-0.84-1.64c-2.46-6.32-3.07-13.01-4.02-19.64c0.92-0.99,0.62-2.16,0.48-3.3 c0.11-0.28,0.23-0.56,0.34-0.84c-0.13-0.23-0.17-0.47-0.14-0.73c0.26-0.1,0.53-0.1,0.79,0.01c0.76-0.33,0.83-1.06,0.99-1.74 c0.2-0.32,0.41-0.64,0.61-0.96c0.21-2.55,2.47-2.66,4.14-3.47c0.61,0.01,1.23,0.09,1.63-0.53c1.64-0.31,3.29-0.62,4.93-0.93 c2.45-0.4,4.13,1.86,6.46,1.87c0.51-0.05,1.03-0.11,1.54-0.16c-0.11,0.46-0.25,0.72-0.4,0.85c-0.06,0.05-0.12,0.08-0.19,0.08 c0.06-0.01,0.13-0.04,0.19-0.08c0.15-0.12,0.28-0.39,0.4-0.85c-0.28-1.34-0.55-2.68-0.83-4.02c0.12-0.27,0.24-0.54,0.35-0.81 c-0.02-1.41-0.67-2.9,0.58-4.13c1.22-5.5,5.32-8.29,9.93-10.61c4.19-0.89,7.35,1.46,10.65,3.39c0.25-0.13,0.51-0.15,0.78-0.06 c0.02,0.27-0.02,0.53-0.12,0.79l0.29-0.09c-0.59,2.69,3.14,1.22,3.17,3.31c0.34,0.09,0.68,0.17,1.02,0.26 c-0.35,0.42-0.63,0.53-0.81,0.3c0.19,0.23,0.46,0.12,0.81-0.3c1.12-1.3-0.48-2.32-0.35-3.52c0.12-3.97,1.81-7.58,2.61-11.39 c1.55,0.21,2.11-1.32,3.24-1.84c1.26,0.44,1.52-0.85,2.27-1.3c0.61-0.28,1.22-0.55,1.83-0.83c2.16-0.02,4.32-0.03,6.48-0.05 c1.29,0.86,2.35,2.19,4.14,2.06c0.95-0.32,0.59-0.87,0.25-1.41c0.03-0.55,0.06-1.11,0.08-1.66c1.47-4.01,1.57-8.65,5.38-11.57 c0.68,0.1,1.39,0.27,1.76-0.58c1.59-0.27,3.19-0.53,4.78-0.8c1.14,1.24,2.89,0.51,4.17,1.31c2.38,0.41,3.85,2.29,5.69,3.56 c0.3,0.47,0.61,0.94,0.91,1.41c0.52,0.07,1.04,0.13,1.57,0.2c0.31,0.51,0.62,1.02,0.94,1.53c1.86,1.94,3.71,3.87,5.57,5.81 c0.34,2,2.63,2.45,3.32,4.18c0.05,0.68,0.05,1.39,0.87,1.68c0.49-0.05,0.8,0.09,0.71,0.66c0.31,1.31,1.5,1.78,2.38,2.54 c0.26,1.08,0.07,2.46,1.74,2.59c-0.04,0.23,0.02,0.44,0.17,0.62c-0.1,0.67-0.21,1.34,0.56,1.72c0.36,0.99,0.71,1.98,1.07,2.97 c0.45,0.2,0.77,0.48,0.61,1.04c0.18,0.62,0.06,1.39,0.85,1.69c1.84,1.2,2.91,4.53,6.04,2.2c0.75-0.41,1.49-0.81,2.24-1.22 c1.34,0.76,1.68-0.64,2.44-1.13c2.38-0.37,4.46-1.51,6.6-2.5c1.4,0.44,2.06-0.71,2.96-1.36c0.72-0.1,1.45-0.2,2.17-0.3 c0.94-0.64,1.69-1.71,3.07-1.3c3.73-1.7,7.69-2.98,10.65-6.04c1.87,0.33,2.48-1.21,3.39-2.29c0.61-0.08,1.24-0.12,1.56-0.78 c1.33-0.06,2.64-0.15,3.05-1.79l0.31,0.1c-0.04-0.51,0.14-0.78,0.69-0.68c0.55-0.37,1.11-0.74,1.66-1.11 c0.57,0.14,0.81-0.19,0.92-0.68c1.52-1.46,3.77-2.06,4.83-4.07c2.12-0.14,2.97-1.9,4.13-3.26c1.15,0.03,1.73-0.52,1.69-1.69 c0.24-0.27,0.48-0.55,0.72-0.82c2.42-1.6,1.96-5.29,4.78-6.61c0.39-1.08-0.31-2.42,0.83-3.31c0.1-1.12,0.21-2.24-0.51-3.23 c0.33-1.1,1.3-2.03,0.87-3.33l0,0c-0.23-0.54,0.05-0.78,0.53-0.91c0.38-1.03,0.8-2.06-0.78-2.47c-1.95,2.99-5.58,4.29-7.42,7.39 c-2.35-0.02-4,1.41-5.71,2.73c-0.51-0.12-0.74,0.16-0.89,0.57c-1.6,0-3.2,0.01-4.8,0.01c-0.33-2.95-0.21-5.51,3.47-6.51 c1.06-0.29,2.56-0.9,3.1-2.31c1.96,0.31,2.55-1.17,3.26-2.5c0.57-0.14,1.14-0.29,1.71-0.43c0.21,0.17,0.41,0.33,0.62,0.48 c0.21,0.14,0.42,0.27,0.63,0.39c-0.21-0.11-0.42-0.24-0.63-0.39c-0.21-0.14-0.41-0.3-0.62-0.48c0.31-0.49,0.62-0.97,0.94-1.46 c0.88-0.63,1.94-1.1,2.27-2.28c0.26-0.29,0.51-0.59,0.77-0.88c1.13-0.46,2.04-1.14,2.34-2.41c1.89-2.17,4.13-4.13,4.52-7.24 c2.13-0.53,1.22-2.14,1.21-3.43c0.46-1.4,0.92-2.81,1.38-4.21c-0.69-0.25-1.38-0.49-2.07-0.74l0,0c-2.48,1.31-4.96,2.62-7.44,3.94 c-1.15,0.1-1.96,0.68-2.43,1.73c-3.01-0.98-4.36,3.19-7.32,2.37c-1.38-0.31-3.56,1.58-3.94-1.45c-0.86-2.29,1-2.99,2.33-4.01 c1.22,0.02,1.91-0.73,2.46-1.69c0.64-0.07,1.32-0.07,1.62-0.82c3.41-0.43,5.86-2.99,9-4.03c0.82-0.32,1.63-0.63,2.45-0.95 c0.11,0.06,0.22,0.12,0.33,0.16c-0.1-0.05-0.21-0.1-0.33-0.16c0.4-1.18,1.37-1.5,2.47-1.61c0.57-0.82,1.13-1.63,1.7-2.45 c2.11-1.5,3.71-3.44,4.84-5.77c1.24-0.45,0.72-1.58,0.92-2.42c0.72-0.32,1.19-1.21,2.16-0.95c1.77-5.51,1.33-10.97-0.34-16.41 c0.18-0.96,0.25-1.97-0.97-2.19c-0.96-0.18-0.89,0.72-0.99,1.35c-0.81,0.1-1.61,0.19-2.42,0.29c-0.22-0.13-0.46-0.17-0.72-0.14 c-0.07,0.25-0.14,0.5-0.2,0.75c-1.24,0.76-2.19,2.25-3.99,1.58c-0.26,0.09-0.53,0.18-0.79,0.27h0c-0.26,0.23-0.51,0.46-0.77,0.69 c-0.01-0.14,0-0.26,0.02-0.36c-0.02,0.1-0.03,0.22-0.02,0.36l-0.25-0.08c0.08,0.51-0.06,0.86-0.65,0.88 c-2.11,2.09-4.81,1.53-7.36,1.67c-0.49,1.68-2.69,0.86-3.34,2.3c-1.07,0.42-2.51-0.48-3.3,0.92c-0.59,0.1-1.3-0.09-1.64,0.66 c-1.25,0.27-2.4,0.71-3.25,1.72c-0.53,0.08-1.06,0.16-1.6,0.24c-0.51-0.03-1.02-0.06-1.54-0.09c-0.6,0.77-1.19,1.54-1.79,2.31 c-4.05,0.38-4.97-1.26-3.24-5.76c1.36,0.39,1.95-0.63,2.64-1.45c0.22,0.03,0.44,0.09,0.64,0.18c1.92-1.2,4.13-1.93,5.73-3.64 c0.73,0.2,1.28,0,1.65-0.68c1.28-0.06,2.55-0.11,3.83-0.17c1.22-1.65,3.02-1.95,4.9-2.34c4.27-0.9,8.22-2.67,11.96-4.92 c-0.11-0.51,0.06-0.74,0.6-0.58c0.72-0.2,1.55-0.21,1.9-1.06c-0.13-0.5,0.07-0.68,0.56-0.59c0.59-0.33,1.19-0.66,1.78-1 c-0.06-0.51,0.13-0.77,0.68-0.67c0.25-0.1,0.5-0.16,0.77-0.2c0.12-0.45,0.34-0.76,0.88-0.67c4.94-6.06,5.49-13.51,6.54-20.79 c0.17-1.18-0.52-2.34-1.48-3.18c-1.35-4.07-1.35-4.07-3.39-3.15c-1.92,0.81-3.84,1.62-5.76,2.42c-0.72-0.13-1.38-0.15-1.67,0.72 c-2.72,0.89-5.44,1.79-8.17,2.68c-1.28-0.38-1.98,0.34-2.52,1.35c-1.88-0.04-3.35,0.99-4.87,1.89c-0.54-0.09-0.76,0.22-0.87,0.68 c-3.26,0.92-6.52,1.84-9.77,2.76c-1.61,0.23-3.23,0.46-4.84,0.7c-0.02,0.26-0.03,0.52-0.04,0.79c-0.82-0.01-1.63-0.01-2.45-0.02 c0.04,2.43-2.73,0.81-3.33,2.31c-0.54,0.05-1.08,0.1-1.63,0.15c-1.53-0.37-2.26,0.9-3.28,1.6c-2.05,0.6-4.46,0.27-5.94,2.31 c-2.19-0.45-3.52,1.72-5.53,1.83c-0.68-0.14-1.34-0.21-1.69,0.6c-4.42,0.98-9.29,1.52-13.11,3.15c-4.42,1.87-8.88,1.19-13.05,2.74 c-2.66,1.42-5.46,0.63-8.21,0.49c-3.08,0.1-6.42,2-9.05-1.24c-3.57-3.17-2.02-6.94-0.81-10.32c2.09-5.84,6.27-10.43,10.04-15.24 c-0.11-0.21-0.15-0.44-0.13-0.67c0.25-0.07,0.51-0.07,0.76,0c0.67-0.38,0.88-1.01,0.95-1.72c0.79-1.62,1.58-3.25,2.38-4.87 c0.25-0.06,0.5-0.12,0.75-0.18c0.26-0.25,0.52-0.51,0.78-0.76c-0.02-0.54-0.04-1.08-0.05-1.62c0.86-1.95,2.74-3.4,2.85-5.73 c0.27-0.97,0.44-1.99,1.38-2.61c0.49,0.05,0.79-0.11,0.72-0.67c0.31-1.06-0.07-2.51,1.61-2.77c-0.07-0.4-0.14-0.8-0.22-1.2 c-0.73-0.8-0.66-1.46,0.33-1.97l0.39,0.11l0.4-0.02C223.75,157.94,223.78,157.26,222.98,156.98z M295.21,220.59 c0.04-0.08,0.1-0.15,0.18-0.18C295.31,220.44,295.25,220.5,295.21,220.59z M294.85,248.38c0.19,0.06,0.35,0.09,0.5,0.1 C295.2,248.48,295.04,248.44,294.85,248.38z M254.88,91.85C254.88,91.85,254.88,91.85,254.88,91.85 C254.88,91.85,254.88,91.85,254.88,91.85z M255.84,91.08c-0.1-0.9-0.66-1.4-1.51-1.54C255.18,89.68,255.74,90.18,255.84,91.08 c-0.05,0.26-0.14,0.44-0.28,0.56C255.7,91.52,255.79,91.34,255.84,91.08z M276.31,6.17c0.12-0.13,0.22-0.27,0.3-0.42 c0.08-0.15,0.15-0.31,0.2-0.48c-0.05,0.17-0.12,0.33-0.2,0.48C276.52,5.91,276.43,6.05,276.31,6.17z M339.96,19.2 c0.21,0.28,0.43,0.53,0.66,0.75C340.4,19.73,340.18,19.48,339.96,19.2z M234.42,79.11c0.09,0.58-0.05,1.3,0.83,1.43 c-0.03-0.56-0.07-1.12-0.1-1.69C234.89,78.91,234.65,79,234.42,79.11z M239.53,87.29c0.2-0.22,0.41-0.44,0.61-0.66 C239.64,86.57,239.39,86.75,239.53,87.29z M14.15,416.3c0.2-0.31,0.41-0.61,0.61-0.92C14.31,415.52,14.04,415.78,14.15,416.3z M155.07,198.06c0.24-0.23,0.47-0.46,0.71-0.68C155.26,197.31,155,197.52,155.07,198.06z M61.62,361.45 c-0.04,0.25-0.01,0.48,0.11,0.7c0.2-0.21,0.4-0.42,0.6-0.64C62.09,361.44,61.86,361.41,61.62,361.45z M127.9,427.16 c0.32,0.24,0.65,0.47,0.97,0.71C128.72,427.39,128.47,427.06,127.9,427.16z M119.86,340.83c0.2-0.32,0.41-0.64,0.61-0.96 c-0.25,0.03-0.5,0.08-0.74,0.16C119.77,340.3,119.81,340.56,119.86,340.83z M131.32,289.96c0.22-0.29,0.43-0.58,0.65-0.88 C131.51,289.2,131.21,289.43,131.32,289.96z M279.44,287.42c-0.01,0-0.02,0-0.03,0c-0.01,0.02-0.02,0.04-0.02,0.06L279.44,287.42z M117.89,251.42c-0.21,0.21-0.43,0.43-0.64,0.64C117.76,252.15,118,251.96,117.89,251.42z M323.23,153.26 c-0.01,0.09,0.12,0.2,0.19,0.3c0.1-0.07,0.2-0.14,0.3-0.21c-0.07-0.1-0.14-0.2-0.21-0.3C323.41,153.12,323.25,153.18,323.23,153.26z" fill="#0049ac"/></g></svg>