<?xml version="1.0" encoding="UTF-8" standalone="no"?><svg xmlns="http://www.w3.org/2000/svg" xmlns:xlink="http://www.w3.org/1999/xlink" fill="#000000" height="181.2" preserveAspectRatio="xMidYMid meet" version="1" viewBox="15.9 157.5 468.3 181.2" width="468.3" zoomAndPan="magnify"><g><g><g id="change1_1"><path d="M565.7,178.3l48.1-9c0,0,43.8-30.3,62.1-36.5c12.6-4.3,24.1-4.5,33.2,3.4c16.3,14.1,15.1,38.7,11.5,42.5 c-3.6,3.8-10.4,6.4-13.2-8.1c-6.3-5.4-6.7-10.6-14.9-8.8c-8.2,1.9-15.7,12.1-19.9,15.9c-4.2,3.8,1.5,19.7,7.9,22.8 c6.4,3.2,18.5,2.9,26,8.9c7.5,6,17.4,21,9.1,25c-8.3,4-14.8-10.1-30.3-11.1c-15.5-1-41.4,3.8-51.9,3.1c-10.4-0.6-23.9-2-23.9-2 l-34.5,11.1L565.7,178.3z" fill="#0049ac" transform="rotate(-3.725 452.602 10888.274) scale(1.30574)"/></g><g id="change2_2"><path d="M711.8,173.8c-1.2-0.1-2.6-0.4-4.1-1.1c-0.5-0.2-0.8-0.8-0.5-1.4c0.2-0.5,0.8-0.8,1.4-0.5 c5,2.1,6.6,0.2,7.6-1.7c1.6-3.3-1.7-9-3.7-12.4l-0.6-1c-5.5-9.7-12.4-15.5-20.4-17.2c-8.3-1.7-17.8,1.2-27.4,8.4 c-0.5,0.3-1.1,0.3-1.5-0.2c-0.3-0.5-0.3-1.1,0.2-1.5c10.1-7.6,20.1-10.6,29.1-8.8c8.6,1.8,15.9,7.9,21.8,18.2l0.5,1 c2.2,3.8,5.8,10,3.7,14.3C716.7,172.7,714.6,174,711.8,173.8z" fill="#0049ac" transform="rotate(-3.725 452.602 10888.274) scale(1.30574)"/></g><g id="change2_1"><path d="M643.3,198.5c-0.8-0.1-1.4-0.3-1.5-1c-0.1-1.1,0.6-1.3,3.3-1.9c1.5-0.4,3.3-0.8,4.1-1.2 c5.1-2.5,9.3-6.3,13.5-9.9c3-2.6,6.1-5.4,9.4-7.5c0.5-0.3,1.1-0.2,1.4,0.3c0.3,0.5,0.2,1.1-0.3,1.4c-3.2,2.1-6.1,4.6-9.1,7.3 c-4.2,3.7-8.6,7.6-13.9,10.2c-1,0.5-2.9,1-4.5,1.4c-0.1,0-0.2,0.1-0.3,0.1c-0.1,0.5-0.5,0.9-1,0.9 C644,198.5,643.6,198.5,643.3,198.5z" fill="#0049ac" transform="rotate(-3.725 452.602 10888.274) scale(1.30574)"/></g><g id="change3_1"><path d="M579.4,169.7l7.8,65.6l-29.4,17.2l-14.5-77.8L579.4,169.7z" fill="#21d1dd" transform="rotate(-3.725 452.602 10888.274) scale(1.30574)"/></g></g><g><g id="change4_1"><path d="M2271.9,303.7l48.1-9c0,0,43.8-30.3,62.1-36.5c12.6-4.3,24.1-4.5,33.2,3.4c16.3,14.1,15.1,38.7,11.5,42.5 c-3.6,3.8-10.4,6.4-13.2-8.1c-6.3-5.4-6.7-10.6-14.9-8.8c-8.2,1.9-15.7,12.1-19.9,15.9c-4.2,3.8,1.5,19.7,7.9,22.8 c6.4,3.2,18.5,2.9,26,8.9c7.5,6,17.4,21,9.1,25c-8.3,4-14.8-10.1-30.3-11.1c-15.5-1-41.4,3.8-51.9,3.1c-10.4-0.6-23.9-2-23.9-2 l-34.5,11.1L2271.9,303.7z" fill="#21d1dd" transform="matrix(-1.30136 -.1069 -.1069 1.30136 3443.143 87.264)"/></g><g id="change3_2"><path d="M2417.9,299.2c2.8,0.2,4.9-1,6.3-3.8c2.1-4.3-1.6-10.6-3.7-14.3l-0.5-1c-5.8-10.3-13.1-16.4-21.8-18.2 c-8.9-1.8-19,1.2-29.1,8.8c-0.5,0.3-0.6,1-0.2,1.5c0.3,0.5,1,0.6,1.5,0.2c9.6-7.2,19.1-10.1,27.4-8.4c8,1.7,14.9,7.4,20.4,17.2 l0.6,1c2,3.4,5.3,9.1,3.7,12.4c-0.9,1.9-2.6,3.8-7.6,1.7c-0.5-0.2-1.1,0-1.4,0.5c-0.2,0.5,0,1.1,0.5,1.4 C2415.4,298.8,2416.7,299.1,2417.9,299.2z" fill="#21d1dd" transform="matrix(-1.30136 -.1069 -.1069 1.30136 3443.143 87.264)"/></g><g id="change3_3"><path d="M2349.4,323.9c0.3,0,0.7,0,1.1,0c0.5,0,0.9-0.4,1-0.9c0.1,0,0.2-0.1,0.3-0.1c1.6-0.4,3.5-0.9,4.5-1.4 c5.3-2.6,9.7-6.5,13.9-10.2c3.1-2.7,6-5.3,9.1-7.3c0.5-0.3,0.6-1,0.3-1.4c-0.3-0.5-1-0.6-1.4-0.3c-3.3,2.1-6.4,4.9-9.4,7.5 c-4.1,3.6-8.4,7.4-13.5,9.9c-0.8,0.4-2.6,0.9-4.1,1.2c-2.7,0.7-3.4,0.9-3.3,1.9C2348.1,323.6,2348.7,323.8,2349.4,323.9z M2349.6,323.5L2349.6,323.5L2349.6,323.5z" fill="#21d1dd" transform="matrix(-1.30136 -.1069 -.1069 1.30136 3443.143 87.264)"/></g><g id="change5_1"><path d="M2285.6,295.1l7.8,65.6L2264,378l-14.5-77.8L2285.6,295.1z" fill="#0049ac" transform="matrix(-1.30136 -.1069 -.1069 1.30136 3443.143 87.264)"/></g></g></g></svg>