<?xml version="1.0" encoding="UTF-8" standalone="no"?><svg xmlns="http://www.w3.org/2000/svg" xmlns:xlink="http://www.w3.org/1999/xlink" fill="#4be1df" height="42" preserveAspectRatio="xMidYMid meet" version="1" viewBox="5.0 3.0 38.2 42.0" width="38.2" zoomAndPan="magnify"><g id="change1_1"><path d="M 19.9375 3 C 19.746094 2.980469 19.601563 3 19.5 3 L 19.429688 3 C 18.027344 3.101563 16.640625 3.203125 15.203125 3.644531 L 15.175781 3.652344 L 15.148438 3.664063 C 14.207031 4.015625 13.386719 4.378906 13.046875 4.316406 C 13.003906 4.296875 12.972656 4.28125 12.847656 4.21875 C 12.675781 4.132813 12.371094 4 12 4 C 11.738281 4 11.476563 4.035156 11.203125 4.148438 C 10.929688 4.257813 10.605469 4.457031 10.40625 4.851563 C 10.269531 5.125 10.253906 5.507813 10.28125 5.695313 C 10.285156 5.648438 10.296875 5.667969 10.011719 5.867188 C 9.695313 6.089844 9.074219 6.390625 8.835938 7.226563 L 8.835938 7.242188 L 8.828125 7.257813 C 8.648438 7.984375 8.742188 8.453125 8.734375 8.53125 C 8.679688 8.707031 8.382813 8.882813 7.785156 9.242188 L 7.746094 9.265625 C 6.746094 9.933594 5.886719 10.785156 5.304688 11.953125 C 5.203125 12.152344 5 12.464844 5 13 C 5 13.699219 5.371094 14.03125 5.59375 14.269531 C 5.816406 14.507813 6.011719 14.71875 5.96875 14.65625 L 5.992188 14.691406 L 6.019531 14.722656 C 6.085938 14.804688 6.109375 15.109375 5.953125 15.582031 C 5.828125 15.949219 5.480469 16.402344 5.203125 17.070313 C 4.996094 17.5 5 17.902344 5 18 L 5 18.414063 L 5.636719 19.050781 L 5.6875 19.089844 C 6.558594 19.769531 7.304688 20.425781 7.945313 21.15625 L 7.921875 21.125 C 8.433594 21.765625 8.953125 22 9.382813 22.257813 C 9.933594 22.589844 10.667969 23.085938 11.695313 22.878906 C 12.132813 22.792969 12.433594 22.625 12.660156 22.527344 C 12.886719 22.425781 13.015625 22.402344 13 22.402344 C 12.929688 22.402344 13.050781 22.410156 13.222656 22.460938 C 13.375 22.503906 13.605469 22.5625 13.890625 22.578125 C 14.988281 22.734375 15.75 22.160156 16.074219 22.03125 C 16.042969 22.039063 16.195313 22.007813 16.355469 22.046875 C 16.511719 22.085938 16.671875 22.183594 16.691406 22.207031 L 16.765625 22.277344 L 16.84375 22.332031 C 16.78125 22.289063 16.816406 22.304688 16.917969 22.453125 C 17.015625 22.597656 17.1875 22.871094 17.519531 23.105469 C 18.015625 23.46875 18.535156 23.492188 19.019531 23.414063 C 19.039063 23.445313 19.046875 23.441406 19.0625 23.472656 C 19.164063 23.671875 19.199219 23.933594 19.199219 23.800781 C 19.199219 23.835938 19.183594 23.914063 19.140625 24.113281 C 19.097656 24.28125 19.039063 24.578125 19.109375 24.933594 C 19.214844 26.039063 19.417969 26.992188 20.210938 28.015625 C 20.816406 28.789063 21.082031 29.40625 21.09375 30.355469 C 21.054688 30.722656 20.878906 31.15625 20.644531 31.703125 C 20.402344 32.265625 20.097656 32.949219 20.097656 33.800781 C 20.097656 34.835938 20.648438 35.589844 21.082031 36.179688 C 21.515625 36.769531 21.859375 37.261719 21.929688 37.542969 C 21.980469 37.75 21.984375 38.246094 22.125 38.824219 C 22.363281 39.875 22.820313 40.78125 23.351563 41.628906 L 23.359375 41.640625 L 23.367188 41.65625 C 23.6875 42.136719 23.78125 42.179688 23.800781 42.203125 L 23.800781 42.597656 C 23.800781 43.632813 24.464844 44.382813 25.328125 44.730469 L 25.355469 44.738281 L 25.382813 44.75 C 26.109375 44.992188 26.613281 44.773438 27.011719 44.671875 C 27.613281 44.609375 28.378906 44.496094 29.160156 44.238281 C 29.988281 43.96875 30.847656 43.589844 31.421875 42.773438 L 31.480469 42.6875 L 31.519531 42.59375 C 31.789063 41.96875 32.148438 41.367188 32.507813 41.007813 C 32.65625 40.859375 32.859375 40.671875 33.050781 40.359375 C 33.160156 40.179688 33.140625 39.871094 33.175781 39.597656 L 33.398438 39.597656 L 33.496094 39.578125 C 34.097656 39.460938 34.527344 39.015625 34.730469 38.589844 C 34.929688 38.167969 34.976563 37.738281 34.871094 37.28125 C 34.757813 36.773438 34.488281 36.433594 34.3125 36.21875 C 34.179688 36.054688 34.144531 35.992188 34.101563 35.925781 C 34.121094 35.890625 34.121094 35.867188 34.15625 35.832031 C 34.320313 35.648438 34.574219 35.441406 34.707031 35.359375 C 35.277344 35.085938 36.191406 34.753906 36.695313 33.75 L 36.714844 33.710938 L 36.730469 33.671875 C 37.015625 32.957031 37.015625 32.140625 36.730469 31.425781 L 36.78125 31.605469 C 36.554688 30.464844 36.175781 29.597656 36.09375 28.800781 L 36.089844 28.75 L 36.078125 28.703125 C 35.984375 28.214844 36.363281 27.429688 36.859375 26.53125 C 37.148438 26.109375 37.628906 25.683594 38.15625 25.332031 L 38.175781 25.316406 L 38.199219 25.300781 C 39.238281 24.523438 40.632813 23.371094 41.6875 22.066406 C 42.21875 21.414063 42.667969 20.726563 42.921875 19.964844 C 43.175781 19.203125 43.207031 18.300781 42.777344 17.515625 L 42.183594 16.4375 L 41.25 17.238281 C 40.8125 17.613281 39.726563 18.015625 38.910156 18.101563 C 38.78125 18.089844 38.644531 18.066406 38.621094 18.078125 C 38.597656 18.058594 38.585938 18.035156 38.59375 18.050781 L 38.539063 17.941406 L 38.457031 17.847656 C 38.058594 17.382813 37.757813 16.308594 36.75 15.441406 L 36.726563 15.421875 L 36.699219 15.402344 C 36.214844 15.035156 35.941406 14.886719 35.800781 14.699219 L 35.757813 14.640625 L 35.707031 14.59375 C 35.542969 14.429688 35.347656 13.984375 35.148438 13.382813 L 35.140625 13.367188 C 34.601563 11.828125 34.597656 10.398438 33.824219 8.519531 L 33.8125 8.484375 L 33.796875 8.453125 C 33.710938 8.28125 33.601563 8.019531 33.390625 7.71875 C 33.175781 7.417969 32.714844 7 32.097656 7 L 31.328125 7 L 31.257813 7.007813 C 30.832031 7.070313 30.339844 6.949219 29.714844 6.703125 C 29.105469 6.46875 28.402344 6.132813 27.578125 5.945313 C 27.3125 5.863281 27.042969 5.816406 26.734375 5.839844 C 26.417969 5.863281 26.027344 5.957031 25.691406 6.292969 C 25.347656 6.636719 25.289063 6.976563 25.234375 7.195313 C 25.175781 7.160156 25.074219 7.082031 24.773438 6.882813 C 24.070313 6.390625 23.265625 6.148438 22.515625 5.898438 C 22.085938 5.757813 21.84375 5.628906 21.515625 5.488281 C 21.523438 5.46875 21.542969 5.433594 21.546875 5.414063 C 21.714844 4.917969 21.617188 4.535156 21.480469 4.191406 C 21.339844 3.847656 21.136719 3.523438 20.753906 3.265625 L 20.703125 3.234375 L 20.644531 3.203125 C 20.367188 3.066406 20.132813 3.015625 19.9375 3 Z M 41.699219 30 C 41.398438 30.601563 41 31.300781 40.5 31.597656 C 40.101563 31.800781 39.601563 32 39.402344 32.402344 C 39.101563 32.902344 39.402344 33.5 39.300781 34 C 39.300781 34.199219 39.199219 34.398438 39.097656 34.597656 C 39 35.097656 39.101563 35.699219 39.300781 36.199219 C 39.402344 36.5 39.601563 36.898438 39.902344 37 C 40.101563 37 40.398438 36.898438 40.597656 36.699219 C 40.800781 36.5 41 36.101563 41.097656 35.800781 C 41.199219 35.5 41.199219 35.199219 41.199219 34.902344 C 41.300781 34 41.800781 33.097656 42 32.199219 C 42.101563 31.597656 42.101563 31 42 30.402344 C 41.898438 30.199219 41.800781 30 41.699219 30 Z M 32.699219 39.597656 L 32.703125 39.597656 C 32.703125 39.601563 32.699219 39.601563 32.699219 39.605469 C 32.671875 39.613281 32.765625 39.597656 32.699219 39.597656 Z" fill="inherit"/></g></svg>