<svg xmlns="http://www.w3.org/2000/svg" viewBox="0 0 32 40" x="0px" y="0px"><g><path d="M28,7.5H26a.49511.49511,0,0,0-.5.5.50146.50146,0,0,0,.5.5h1.5v13H4.5V8.5H6a.5.5,0,0,0,0-1H4a.49511.49511,0,0,0-.5.5V26a.49514.49514,0,0,0,.5.5h7.36l-.75,3H10a.5.5,0,0,0,0,1H22a.5.5,0,0,0,0-1h-.61l-.75-3H28a.49514.49514,0,0,0,.5-.5V8A.49511.49511,0,0,0,28,7.5Zm-13,16h2a.5.5,0,0,1,0,1H15a.5.5,0,0,1,0-1Zm-3.36,6,.75-3h7.22l.75,3Z"/><path d="M24,1.5H8a.49511.49511,0,0,0-.5.5V18a.49514.49514,0,0,0,.5.5H24a.49514.49514,0,0,0,.5-.5V2A.49511.49511,0,0,0,24,1.5Zm-.5,16H8.5V2.5h15Z"/><path d="M16,3.5A6.5,6.5,0,1,0,22.5,10,6.51263,6.51263,0,0,0,16,3.5Zm2.35,8.15a.48334.48334,0,0,1,0,.7.48324.48324,0,0,1-.7,0L16,10.71l-1.65,1.64a.48324.48324,0,0,1-.7,0,.48334.48334,0,0,1,0-.7L15.29,10,13.65,8.35a.495.495,0,0,1,.7-.7L16,9.29l1.65-1.64a.495.495,0,1,1,.7.7L16.71,10Z"/></g><text x="0" y="47" fill="#000000" font-size="5px" font-weight="bold" font-family="'Helvetica Neue', Helvetica, Arial-Unicode, Arial, Sans-serif">Created by M. Faisal</text><text x="0" y="52" fill="#000000" font-size="5px" font-weight="bold" font-family="'Helvetica Neue', Helvetica, Arial-Unicode, Arial, Sans-serif">from the Noun Project</text></svg>